<mxfile host="app.diagrams.net" modified="2023-04-23T08:05:13.111Z" agent="Mozilla/5.0 (Macintosh; Intel Mac OS X 10_15_7) AppleWebKit/537.36 (KHTML, like Gecko) Chrome/112.0.0.0 Safari/537.36" etag="A60ljcKpMRcNhOndeHZn" version="21.2.1" type="github">
  <diagram id="R2lEEEUBdFMjLlhIrx00" name="Page-1">
    <mxGraphModel dx="2172" dy="2452" grid="1" gridSize="10" guides="1" tooltips="1" connect="1" arrows="1" fold="1" page="1" pageScale="1" pageWidth="850" pageHeight="1100" math="0" shadow="0" extFonts="Permanent Marker^https://fonts.googleapis.com/css?family=Permanent+Marker">
      <root>
        <mxCell id="0" />
        <mxCell id="1" parent="0" />
        <mxCell id="-NDaC0I0iqczgyZ4K7Db-1" value="`power_station`" style="shape=table;startSize=30;container=1;collapsible=1;childLayout=tableLayout;fixedRows=1;rowLines=0;fontStyle=1;align=center;resizeLast=1;" vertex="1" parent="1">
          <mxGeometry x="260" y="-510" width="840" height="1260" as="geometry" />
        </mxCell>
        <mxCell id="-NDaC0I0iqczgyZ4K7Db-2" value="" style="shape=tableRow;horizontal=0;startSize=0;swimlaneHead=0;swimlaneBody=0;fillColor=none;collapsible=0;dropTarget=0;points=[[0,0.5],[1,0.5]];portConstraint=eastwest;strokeColor=inherit;top=0;left=0;right=0;bottom=1;" vertex="1" parent="-NDaC0I0iqczgyZ4K7Db-1">
          <mxGeometry y="30" width="840" height="30" as="geometry" />
        </mxCell>
        <mxCell id="-NDaC0I0iqczgyZ4K7Db-3" value="PK" style="shape=partialRectangle;overflow=hidden;connectable=0;fillColor=none;strokeColor=inherit;top=0;left=0;bottom=0;right=0;fontStyle=1;" vertex="1" parent="-NDaC0I0iqczgyZ4K7Db-2">
          <mxGeometry width="30" height="30" as="geometry">
            <mxRectangle width="30" height="30" as="alternateBounds" />
          </mxGeometry>
        </mxCell>
        <mxCell id="-NDaC0I0iqczgyZ4K7Db-4" value="`id` bigint NOT NULL AUTO_INCREMENT" style="shape=partialRectangle;overflow=hidden;connectable=0;fillColor=none;align=left;strokeColor=inherit;top=0;left=0;bottom=0;right=0;spacingLeft=6;fontStyle=5;" vertex="1" parent="-NDaC0I0iqczgyZ4K7Db-2">
          <mxGeometry x="30" width="810" height="30" as="geometry">
            <mxRectangle width="810" height="30" as="alternateBounds" />
          </mxGeometry>
        </mxCell>
        <mxCell id="-NDaC0I0iqczgyZ4K7Db-5" value="" style="shape=tableRow;horizontal=0;startSize=0;swimlaneHead=0;swimlaneBody=0;fillColor=none;collapsible=0;dropTarget=0;points=[[0,0.5],[1,0.5]];portConstraint=eastwest;strokeColor=inherit;top=0;left=0;right=0;bottom=0;" vertex="1" parent="-NDaC0I0iqczgyZ4K7Db-1">
          <mxGeometry y="60" width="840" height="30" as="geometry" />
        </mxCell>
        <mxCell id="-NDaC0I0iqczgyZ4K7Db-6" value="" style="shape=partialRectangle;overflow=hidden;connectable=0;fillColor=none;strokeColor=inherit;top=0;left=0;bottom=0;right=0;" vertex="1" parent="-NDaC0I0iqczgyZ4K7Db-5">
          <mxGeometry width="30" height="30" as="geometry">
            <mxRectangle width="30" height="30" as="alternateBounds" />
          </mxGeometry>
        </mxCell>
        <mxCell id="-NDaC0I0iqczgyZ4K7Db-7" value="`power_station_no` bigint DEFAULT NULL COMMENT &#39;电站编号&#39;" style="shape=partialRectangle;overflow=hidden;connectable=0;fillColor=none;align=left;strokeColor=inherit;top=0;left=0;bottom=0;right=0;spacingLeft=6;" vertex="1" parent="-NDaC0I0iqczgyZ4K7Db-5">
          <mxGeometry x="30" width="810" height="30" as="geometry">
            <mxRectangle width="810" height="30" as="alternateBounds" />
          </mxGeometry>
        </mxCell>
        <mxCell id="-NDaC0I0iqczgyZ4K7Db-8" value="" style="shape=tableRow;horizontal=0;startSize=0;swimlaneHead=0;swimlaneBody=0;fillColor=none;collapsible=0;dropTarget=0;points=[[0,0.5],[1,0.5]];portConstraint=eastwest;strokeColor=inherit;top=0;left=0;right=0;bottom=0;" vertex="1" parent="-NDaC0I0iqczgyZ4K7Db-1">
          <mxGeometry y="90" width="840" height="30" as="geometry" />
        </mxCell>
        <mxCell id="-NDaC0I0iqczgyZ4K7Db-9" value="" style="shape=partialRectangle;overflow=hidden;connectable=0;fillColor=none;strokeColor=inherit;top=0;left=0;bottom=0;right=0;" vertex="1" parent="-NDaC0I0iqczgyZ4K7Db-8">
          <mxGeometry width="30" height="30" as="geometry">
            <mxRectangle width="30" height="30" as="alternateBounds" />
          </mxGeometry>
        </mxCell>
        <mxCell id="-NDaC0I0iqczgyZ4K7Db-10" value="`username` varchar(64) CHARACTER SET utf8mb4 COLLATE utf8mb4_general_ci DEFAULT NULL COMMENT &#39;用户名&#39;" style="shape=partialRectangle;overflow=hidden;connectable=0;fillColor=none;align=left;strokeColor=inherit;top=0;left=0;bottom=0;right=0;spacingLeft=6;" vertex="1" parent="-NDaC0I0iqczgyZ4K7Db-8">
          <mxGeometry x="30" width="810" height="30" as="geometry">
            <mxRectangle width="810" height="30" as="alternateBounds" />
          </mxGeometry>
        </mxCell>
        <mxCell id="-NDaC0I0iqczgyZ4K7Db-11" value="" style="shape=tableRow;horizontal=0;startSize=0;swimlaneHead=0;swimlaneBody=0;fillColor=none;collapsible=0;dropTarget=0;points=[[0,0.5],[1,0.5]];portConstraint=eastwest;strokeColor=inherit;top=0;left=0;right=0;bottom=0;" vertex="1" parent="-NDaC0I0iqczgyZ4K7Db-1">
          <mxGeometry y="120" width="840" height="30" as="geometry" />
        </mxCell>
        <mxCell id="-NDaC0I0iqczgyZ4K7Db-12" value="" style="shape=partialRectangle;overflow=hidden;connectable=0;fillColor=none;strokeColor=inherit;top=0;left=0;bottom=0;right=0;" vertex="1" parent="-NDaC0I0iqczgyZ4K7Db-11">
          <mxGeometry width="30" height="30" as="geometry">
            <mxRectangle width="30" height="30" as="alternateBounds" />
          </mxGeometry>
        </mxCell>
        <mxCell id="-NDaC0I0iqczgyZ4K7Db-13" value="`phone` char(11) CHARACTER SET utf8mb4 COLLATE utf8mb4_general_ci DEFAULT NULL COMMENT &#39;用户手机号&#39;" style="shape=partialRectangle;overflow=hidden;connectable=0;fillColor=none;align=left;strokeColor=inherit;top=0;left=0;bottom=0;right=0;spacingLeft=6;" vertex="1" parent="-NDaC0I0iqczgyZ4K7Db-11">
          <mxGeometry x="30" width="810" height="30" as="geometry">
            <mxRectangle width="810" height="30" as="alternateBounds" />
          </mxGeometry>
        </mxCell>
        <mxCell id="-NDaC0I0iqczgyZ4K7Db-14" value="" style="shape=tableRow;horizontal=0;startSize=0;swimlaneHead=0;swimlaneBody=0;fillColor=none;collapsible=0;dropTarget=0;points=[[0,0.5],[1,0.5]];portConstraint=eastwest;strokeColor=inherit;top=0;left=0;right=0;bottom=0;" vertex="1" parent="-NDaC0I0iqczgyZ4K7Db-1">
          <mxGeometry y="150" width="840" height="30" as="geometry" />
        </mxCell>
        <mxCell id="-NDaC0I0iqczgyZ4K7Db-15" value="" style="shape=partialRectangle;overflow=hidden;connectable=0;fillColor=none;strokeColor=inherit;top=0;left=0;bottom=0;right=0;" vertex="1" parent="-NDaC0I0iqczgyZ4K7Db-14">
          <mxGeometry width="30" height="30" as="geometry">
            <mxRectangle width="30" height="30" as="alternateBounds" />
          </mxGeometry>
        </mxCell>
        <mxCell id="-NDaC0I0iqczgyZ4K7Db-16" value="`installed_capacity` varchar(64) CHARACTER SET utf8mb4 COLLATE utf8mb4_general_ci DEFAULT NULL COMMENT &#39;装机容量&#39;" style="shape=partialRectangle;overflow=hidden;connectable=0;fillColor=none;align=left;strokeColor=inherit;top=0;left=0;bottom=0;right=0;spacingLeft=6;" vertex="1" parent="-NDaC0I0iqczgyZ4K7Db-14">
          <mxGeometry x="30" width="810" height="30" as="geometry">
            <mxRectangle width="810" height="30" as="alternateBounds" />
          </mxGeometry>
        </mxCell>
        <mxCell id="-NDaC0I0iqczgyZ4K7Db-17" value="" style="shape=tableRow;horizontal=0;startSize=0;swimlaneHead=0;swimlaneBody=0;fillColor=none;collapsible=0;dropTarget=0;points=[[0,0.5],[1,0.5]];portConstraint=eastwest;strokeColor=inherit;top=0;left=0;right=0;bottom=0;" vertex="1" parent="-NDaC0I0iqczgyZ4K7Db-1">
          <mxGeometry y="180" width="840" height="30" as="geometry" />
        </mxCell>
        <mxCell id="-NDaC0I0iqczgyZ4K7Db-18" value="" style="shape=partialRectangle;overflow=hidden;connectable=0;fillColor=none;strokeColor=inherit;top=0;left=0;bottom=0;right=0;" vertex="1" parent="-NDaC0I0iqczgyZ4K7Db-17">
          <mxGeometry width="30" height="30" as="geometry">
            <mxRectangle width="30" height="30" as="alternateBounds" />
          </mxGeometry>
        </mxCell>
        <mxCell id="-NDaC0I0iqczgyZ4K7Db-19" value="`power_station_type` tinyint DEFAULT NULL COMMENT &#39;电站类型&#39;" style="shape=partialRectangle;overflow=hidden;connectable=0;fillColor=none;align=left;strokeColor=inherit;top=0;left=0;bottom=0;right=0;spacingLeft=6;" vertex="1" parent="-NDaC0I0iqczgyZ4K7Db-17">
          <mxGeometry x="30" width="810" height="30" as="geometry">
            <mxRectangle width="810" height="30" as="alternateBounds" />
          </mxGeometry>
        </mxCell>
        <mxCell id="-NDaC0I0iqczgyZ4K7Db-20" value="" style="shape=tableRow;horizontal=0;startSize=0;swimlaneHead=0;swimlaneBody=0;fillColor=none;collapsible=0;dropTarget=0;points=[[0,0.5],[1,0.5]];portConstraint=eastwest;strokeColor=inherit;top=0;left=0;right=0;bottom=0;" vertex="1" parent="-NDaC0I0iqczgyZ4K7Db-1">
          <mxGeometry y="210" width="840" height="30" as="geometry" />
        </mxCell>
        <mxCell id="-NDaC0I0iqczgyZ4K7Db-21" value="" style="shape=partialRectangle;overflow=hidden;connectable=0;fillColor=none;strokeColor=inherit;top=0;left=0;bottom=0;right=0;" vertex="1" parent="-NDaC0I0iqczgyZ4K7Db-20">
          <mxGeometry width="30" height="30" as="geometry">
            <mxRectangle width="30" height="30" as="alternateBounds" />
          </mxGeometry>
        </mxCell>
        <mxCell id="-NDaC0I0iqczgyZ4K7Db-22" value="`alarm_status` tinyint DEFAULT NULL COMMENT &#39;告警状态&#39;" style="shape=partialRectangle;overflow=hidden;connectable=0;fillColor=none;align=left;strokeColor=inherit;top=0;left=0;bottom=0;right=0;spacingLeft=6;" vertex="1" parent="-NDaC0I0iqczgyZ4K7Db-20">
          <mxGeometry x="30" width="810" height="30" as="geometry">
            <mxRectangle width="810" height="30" as="alternateBounds" />
          </mxGeometry>
        </mxCell>
        <mxCell id="-NDaC0I0iqczgyZ4K7Db-23" value="" style="shape=tableRow;horizontal=0;startSize=0;swimlaneHead=0;swimlaneBody=0;fillColor=none;collapsible=0;dropTarget=0;points=[[0,0.5],[1,0.5]];portConstraint=eastwest;strokeColor=inherit;top=0;left=0;right=0;bottom=0;" vertex="1" parent="-NDaC0I0iqczgyZ4K7Db-1">
          <mxGeometry y="240" width="840" height="30" as="geometry" />
        </mxCell>
        <mxCell id="-NDaC0I0iqczgyZ4K7Db-24" value="" style="shape=partialRectangle;overflow=hidden;connectable=0;fillColor=none;strokeColor=inherit;top=0;left=0;bottom=0;right=0;" vertex="1" parent="-NDaC0I0iqczgyZ4K7Db-23">
          <mxGeometry width="30" height="30" as="geometry">
            <mxRectangle width="30" height="30" as="alternateBounds" />
          </mxGeometry>
        </mxCell>
        <mxCell id="-NDaC0I0iqczgyZ4K7Db-25" value="`grid_connection_time` datetime DEFAULT NULL COMMENT &#39;并网时间&#39;" style="shape=partialRectangle;overflow=hidden;connectable=0;fillColor=none;align=left;strokeColor=inherit;top=0;left=0;bottom=0;right=0;spacingLeft=6;" vertex="1" parent="-NDaC0I0iqczgyZ4K7Db-23">
          <mxGeometry x="30" width="810" height="30" as="geometry">
            <mxRectangle width="810" height="30" as="alternateBounds" />
          </mxGeometry>
        </mxCell>
        <mxCell id="-NDaC0I0iqczgyZ4K7Db-26" value="" style="shape=tableRow;horizontal=0;startSize=0;swimlaneHead=0;swimlaneBody=0;fillColor=none;collapsible=0;dropTarget=0;points=[[0,0.5],[1,0.5]];portConstraint=eastwest;strokeColor=inherit;top=0;left=0;right=0;bottom=0;" vertex="1" parent="-NDaC0I0iqczgyZ4K7Db-1">
          <mxGeometry y="270" width="840" height="30" as="geometry" />
        </mxCell>
        <mxCell id="-NDaC0I0iqczgyZ4K7Db-27" value="" style="shape=partialRectangle;overflow=hidden;connectable=0;fillColor=none;strokeColor=inherit;top=0;left=0;bottom=0;right=0;" vertex="1" parent="-NDaC0I0iqczgyZ4K7Db-26">
          <mxGeometry width="30" height="30" as="geometry">
            <mxRectangle width="30" height="30" as="alternateBounds" />
          </mxGeometry>
        </mxCell>
        <mxCell id="-NDaC0I0iqczgyZ4K7Db-28" value="`maintenance_status` tinyint DEFAULT NULL COMMENT &#39;运维状态&#39;" style="shape=partialRectangle;overflow=hidden;connectable=0;fillColor=none;align=left;strokeColor=inherit;top=0;left=0;bottom=0;right=0;spacingLeft=6;" vertex="1" parent="-NDaC0I0iqczgyZ4K7Db-26">
          <mxGeometry x="30" width="810" height="30" as="geometry">
            <mxRectangle width="810" height="30" as="alternateBounds" />
          </mxGeometry>
        </mxCell>
        <mxCell id="-NDaC0I0iqczgyZ4K7Db-29" value="" style="shape=tableRow;horizontal=0;startSize=0;swimlaneHead=0;swimlaneBody=0;fillColor=none;collapsible=0;dropTarget=0;points=[[0,0.5],[1,0.5]];portConstraint=eastwest;strokeColor=inherit;top=0;left=0;right=0;bottom=0;" vertex="1" parent="-NDaC0I0iqczgyZ4K7Db-1">
          <mxGeometry y="300" width="840" height="30" as="geometry" />
        </mxCell>
        <mxCell id="-NDaC0I0iqczgyZ4K7Db-30" value="" style="shape=partialRectangle;overflow=hidden;connectable=0;fillColor=none;strokeColor=inherit;top=0;left=0;bottom=0;right=0;" vertex="1" parent="-NDaC0I0iqczgyZ4K7Db-29">
          <mxGeometry width="30" height="30" as="geometry">
            <mxRectangle width="30" height="30" as="alternateBounds" />
          </mxGeometry>
        </mxCell>
        <mxCell id="-NDaC0I0iqczgyZ4K7Db-31" value="`maintenance_time` datetime DEFAULT NULL COMMENT &#39;运维时间&#39;" style="shape=partialRectangle;overflow=hidden;connectable=0;fillColor=none;align=left;strokeColor=inherit;top=0;left=0;bottom=0;right=0;spacingLeft=6;" vertex="1" parent="-NDaC0I0iqczgyZ4K7Db-29">
          <mxGeometry x="30" width="810" height="30" as="geometry">
            <mxRectangle width="810" height="30" as="alternateBounds" />
          </mxGeometry>
        </mxCell>
        <mxCell id="-NDaC0I0iqczgyZ4K7Db-32" value="" style="shape=tableRow;horizontal=0;startSize=0;swimlaneHead=0;swimlaneBody=0;fillColor=none;collapsible=0;dropTarget=0;points=[[0,0.5],[1,0.5]];portConstraint=eastwest;strokeColor=inherit;top=0;left=0;right=0;bottom=0;" vertex="1" parent="-NDaC0I0iqczgyZ4K7Db-1">
          <mxGeometry y="330" width="840" height="30" as="geometry" />
        </mxCell>
        <mxCell id="-NDaC0I0iqczgyZ4K7Db-33" value="" style="shape=partialRectangle;overflow=hidden;connectable=0;fillColor=none;strokeColor=inherit;top=0;left=0;bottom=0;right=0;" vertex="1" parent="-NDaC0I0iqczgyZ4K7Db-32">
          <mxGeometry width="30" height="30" as="geometry">
            <mxRectangle width="30" height="30" as="alternateBounds" />
          </mxGeometry>
        </mxCell>
        <mxCell id="-NDaC0I0iqczgyZ4K7Db-34" value="`order_no` bigint DEFAULT NULL COMMENT &#39;订单号&#39;" style="shape=partialRectangle;overflow=hidden;connectable=0;fillColor=none;align=left;strokeColor=inherit;top=0;left=0;bottom=0;right=0;spacingLeft=6;" vertex="1" parent="-NDaC0I0iqczgyZ4K7Db-32">
          <mxGeometry x="30" width="810" height="30" as="geometry">
            <mxRectangle width="810" height="30" as="alternateBounds" />
          </mxGeometry>
        </mxCell>
        <mxCell id="-NDaC0I0iqczgyZ4K7Db-35" value="" style="shape=tableRow;horizontal=0;startSize=0;swimlaneHead=0;swimlaneBody=0;fillColor=none;collapsible=0;dropTarget=0;points=[[0,0.5],[1,0.5]];portConstraint=eastwest;strokeColor=inherit;top=0;left=0;right=0;bottom=0;" vertex="1" parent="-NDaC0I0iqczgyZ4K7Db-1">
          <mxGeometry y="360" width="840" height="30" as="geometry" />
        </mxCell>
        <mxCell id="-NDaC0I0iqczgyZ4K7Db-36" value="" style="shape=partialRectangle;overflow=hidden;connectable=0;fillColor=none;strokeColor=inherit;top=0;left=0;bottom=0;right=0;" vertex="1" parent="-NDaC0I0iqczgyZ4K7Db-35">
          <mxGeometry width="30" height="30" as="geometry">
            <mxRectangle width="30" height="30" as="alternateBounds" />
          </mxGeometry>
        </mxCell>
        <mxCell id="-NDaC0I0iqczgyZ4K7Db-37" value="`collector_code` varchar(64) CHARACTER SET utf8mb4 COLLATE utf8mb4_general_ci DEFAULT NULL COMMENT &#39;采集器码&#39;" style="shape=partialRectangle;overflow=hidden;connectable=0;fillColor=none;align=left;strokeColor=inherit;top=0;left=0;bottom=0;right=0;spacingLeft=6;" vertex="1" parent="-NDaC0I0iqczgyZ4K7Db-35">
          <mxGeometry x="30" width="810" height="30" as="geometry">
            <mxRectangle width="810" height="30" as="alternateBounds" />
          </mxGeometry>
        </mxCell>
        <mxCell id="-NDaC0I0iqczgyZ4K7Db-38" value="" style="shape=tableRow;horizontal=0;startSize=0;swimlaneHead=0;swimlaneBody=0;fillColor=none;collapsible=0;dropTarget=0;points=[[0,0.5],[1,0.5]];portConstraint=eastwest;strokeColor=inherit;top=0;left=0;right=0;bottom=0;" vertex="1" parent="-NDaC0I0iqczgyZ4K7Db-1">
          <mxGeometry y="390" width="840" height="30" as="geometry" />
        </mxCell>
        <mxCell id="-NDaC0I0iqczgyZ4K7Db-39" value="" style="shape=partialRectangle;overflow=hidden;connectable=0;fillColor=none;strokeColor=inherit;top=0;left=0;bottom=0;right=0;" vertex="1" parent="-NDaC0I0iqczgyZ4K7Db-38">
          <mxGeometry width="30" height="30" as="geometry">
            <mxRectangle width="30" height="30" as="alternateBounds" />
          </mxGeometry>
        </mxCell>
        <mxCell id="-NDaC0I0iqczgyZ4K7Db-40" value="`inverter_code` varchar(64) CHARACTER SET utf8mb4 COLLATE utf8mb4_general_ci DEFAULT NULL COMMENT &#39;逆变器码&#39;" style="shape=partialRectangle;overflow=hidden;connectable=0;fillColor=none;align=left;strokeColor=inherit;top=0;left=0;bottom=0;right=0;spacingLeft=6;" vertex="1" parent="-NDaC0I0iqczgyZ4K7Db-38">
          <mxGeometry x="30" width="810" height="30" as="geometry">
            <mxRectangle width="810" height="30" as="alternateBounds" />
          </mxGeometry>
        </mxCell>
        <mxCell id="-NDaC0I0iqczgyZ4K7Db-41" value="" style="shape=tableRow;horizontal=0;startSize=0;swimlaneHead=0;swimlaneBody=0;fillColor=none;collapsible=0;dropTarget=0;points=[[0,0.5],[1,0.5]];portConstraint=eastwest;strokeColor=inherit;top=0;left=0;right=0;bottom=0;" vertex="1" parent="-NDaC0I0iqczgyZ4K7Db-1">
          <mxGeometry y="420" width="840" height="30" as="geometry" />
        </mxCell>
        <mxCell id="-NDaC0I0iqczgyZ4K7Db-42" value="" style="shape=partialRectangle;overflow=hidden;connectable=0;fillColor=none;strokeColor=inherit;top=0;left=0;bottom=0;right=0;" vertex="1" parent="-NDaC0I0iqczgyZ4K7Db-41">
          <mxGeometry width="30" height="30" as="geometry">
            <mxRectangle width="30" height="30" as="alternateBounds" />
          </mxGeometry>
        </mxCell>
        <mxCell id="-NDaC0I0iqczgyZ4K7Db-43" value="`slope_angle` varchar(64) CHARACTER SET utf8mb4 COLLATE utf8mb4_general_ci DEFAULT NULL COMMENT &#39;坡角度&#39;" style="shape=partialRectangle;overflow=hidden;connectable=0;fillColor=none;align=left;strokeColor=inherit;top=0;left=0;bottom=0;right=0;spacingLeft=6;" vertex="1" parent="-NDaC0I0iqczgyZ4K7Db-41">
          <mxGeometry x="30" width="810" height="30" as="geometry">
            <mxRectangle width="810" height="30" as="alternateBounds" />
          </mxGeometry>
        </mxCell>
        <mxCell id="-NDaC0I0iqczgyZ4K7Db-44" value="" style="shape=tableRow;horizontal=0;startSize=0;swimlaneHead=0;swimlaneBody=0;fillColor=none;collapsible=0;dropTarget=0;points=[[0,0.5],[1,0.5]];portConstraint=eastwest;strokeColor=inherit;top=0;left=0;right=0;bottom=0;" vertex="1" parent="-NDaC0I0iqczgyZ4K7Db-1">
          <mxGeometry y="450" width="840" height="30" as="geometry" />
        </mxCell>
        <mxCell id="-NDaC0I0iqczgyZ4K7Db-45" value="" style="shape=partialRectangle;overflow=hidden;connectable=0;fillColor=none;strokeColor=inherit;top=0;left=0;bottom=0;right=0;" vertex="1" parent="-NDaC0I0iqczgyZ4K7Db-44">
          <mxGeometry width="30" height="30" as="geometry">
            <mxRectangle width="30" height="30" as="alternateBounds" />
          </mxGeometry>
        </mxCell>
        <mxCell id="-NDaC0I0iqczgyZ4K7Db-46" value="`orientation_angle` varchar(64) CHARACTER SET utf8mb4 COLLATE utf8mb4_general_ci DEFAULT NULL COMMENT &#39;朝向角度&#39;" style="shape=partialRectangle;overflow=hidden;connectable=0;fillColor=none;align=left;strokeColor=inherit;top=0;left=0;bottom=0;right=0;spacingLeft=6;" vertex="1" parent="-NDaC0I0iqczgyZ4K7Db-44">
          <mxGeometry x="30" width="810" height="30" as="geometry">
            <mxRectangle width="810" height="30" as="alternateBounds" />
          </mxGeometry>
        </mxCell>
        <mxCell id="-NDaC0I0iqczgyZ4K7Db-47" value="" style="shape=tableRow;horizontal=0;startSize=0;swimlaneHead=0;swimlaneBody=0;fillColor=none;collapsible=0;dropTarget=0;points=[[0,0.5],[1,0.5]];portConstraint=eastwest;strokeColor=inherit;top=0;left=0;right=0;bottom=0;" vertex="1" parent="-NDaC0I0iqczgyZ4K7Db-1">
          <mxGeometry y="480" width="840" height="30" as="geometry" />
        </mxCell>
        <mxCell id="-NDaC0I0iqczgyZ4K7Db-48" value="" style="shape=partialRectangle;overflow=hidden;connectable=0;fillColor=none;strokeColor=inherit;top=0;left=0;bottom=0;right=0;" vertex="1" parent="-NDaC0I0iqczgyZ4K7Db-47">
          <mxGeometry width="30" height="30" as="geometry">
            <mxRectangle width="30" height="30" as="alternateBounds" />
          </mxGeometry>
        </mxCell>
        <mxCell id="-NDaC0I0iqczgyZ4K7Db-49" value="`inverter_manufactor` varchar(64) CHARACTER SET utf8mb4 COLLATE utf8mb4_general_ci DEFAULT NULL COMMENT &#39;逆变器厂家&#39;" style="shape=partialRectangle;overflow=hidden;connectable=0;fillColor=none;align=left;strokeColor=inherit;top=0;left=0;bottom=0;right=0;spacingLeft=6;" vertex="1" parent="-NDaC0I0iqczgyZ4K7Db-47">
          <mxGeometry x="30" width="810" height="30" as="geometry">
            <mxRectangle width="810" height="30" as="alternateBounds" />
          </mxGeometry>
        </mxCell>
        <mxCell id="-NDaC0I0iqczgyZ4K7Db-50" value="" style="shape=tableRow;horizontal=0;startSize=0;swimlaneHead=0;swimlaneBody=0;fillColor=none;collapsible=0;dropTarget=0;points=[[0,0.5],[1,0.5]];portConstraint=eastwest;strokeColor=inherit;top=0;left=0;right=0;bottom=0;" vertex="1" parent="-NDaC0I0iqczgyZ4K7Db-1">
          <mxGeometry y="510" width="840" height="30" as="geometry" />
        </mxCell>
        <mxCell id="-NDaC0I0iqczgyZ4K7Db-51" value="" style="shape=partialRectangle;overflow=hidden;connectable=0;fillColor=none;strokeColor=inherit;top=0;left=0;bottom=0;right=0;" vertex="1" parent="-NDaC0I0iqczgyZ4K7Db-50">
          <mxGeometry width="30" height="30" as="geometry">
            <mxRectangle width="30" height="30" as="alternateBounds" />
          </mxGeometry>
        </mxCell>
        <mxCell id="-NDaC0I0iqczgyZ4K7Db-52" value="`longitude` varchar(32) CHARACTER SET utf8mb4 COLLATE utf8mb4_general_ci DEFAULT NULL COMMENT &#39;经度&#39;" style="shape=partialRectangle;overflow=hidden;connectable=0;fillColor=none;align=left;strokeColor=inherit;top=0;left=0;bottom=0;right=0;spacingLeft=6;" vertex="1" parent="-NDaC0I0iqczgyZ4K7Db-50">
          <mxGeometry x="30" width="810" height="30" as="geometry">
            <mxRectangle width="810" height="30" as="alternateBounds" />
          </mxGeometry>
        </mxCell>
        <mxCell id="-NDaC0I0iqczgyZ4K7Db-53" value="" style="shape=tableRow;horizontal=0;startSize=0;swimlaneHead=0;swimlaneBody=0;fillColor=none;collapsible=0;dropTarget=0;points=[[0,0.5],[1,0.5]];portConstraint=eastwest;strokeColor=inherit;top=0;left=0;right=0;bottom=0;" vertex="1" parent="-NDaC0I0iqczgyZ4K7Db-1">
          <mxGeometry y="540" width="840" height="30" as="geometry" />
        </mxCell>
        <mxCell id="-NDaC0I0iqczgyZ4K7Db-54" value="" style="shape=partialRectangle;overflow=hidden;connectable=0;fillColor=none;strokeColor=inherit;top=0;left=0;bottom=0;right=0;" vertex="1" parent="-NDaC0I0iqczgyZ4K7Db-53">
          <mxGeometry width="30" height="30" as="geometry">
            <mxRectangle width="30" height="30" as="alternateBounds" />
          </mxGeometry>
        </mxCell>
        <mxCell id="-NDaC0I0iqczgyZ4K7Db-55" value="`latitude` varchar(32) CHARACTER SET utf8mb4 COLLATE utf8mb4_general_ci DEFAULT NULL COMMENT &#39;纬度&#39;" style="shape=partialRectangle;overflow=hidden;connectable=0;fillColor=none;align=left;strokeColor=inherit;top=0;left=0;bottom=0;right=0;spacingLeft=6;" vertex="1" parent="-NDaC0I0iqczgyZ4K7Db-53">
          <mxGeometry x="30" width="810" height="30" as="geometry">
            <mxRectangle width="810" height="30" as="alternateBounds" />
          </mxGeometry>
        </mxCell>
        <mxCell id="-NDaC0I0iqczgyZ4K7Db-56" value="" style="shape=tableRow;horizontal=0;startSize=0;swimlaneHead=0;swimlaneBody=0;fillColor=none;collapsible=0;dropTarget=0;points=[[0,0.5],[1,0.5]];portConstraint=eastwest;strokeColor=inherit;top=0;left=0;right=0;bottom=0;" vertex="1" parent="-NDaC0I0iqczgyZ4K7Db-1">
          <mxGeometry y="570" width="840" height="30" as="geometry" />
        </mxCell>
        <mxCell id="-NDaC0I0iqczgyZ4K7Db-57" value="" style="shape=partialRectangle;overflow=hidden;connectable=0;fillColor=none;strokeColor=inherit;top=0;left=0;bottom=0;right=0;" vertex="1" parent="-NDaC0I0iqczgyZ4K7Db-56">
          <mxGeometry width="30" height="30" as="geometry">
            <mxRectangle width="30" height="30" as="alternateBounds" />
          </mxGeometry>
        </mxCell>
        <mxCell id="-NDaC0I0iqczgyZ4K7Db-58" value="`audit_status` tinyint DEFAULT NULL COMMENT &#39;审核状态&#39;" style="shape=partialRectangle;overflow=hidden;connectable=0;fillColor=none;align=left;strokeColor=inherit;top=0;left=0;bottom=0;right=0;spacingLeft=6;" vertex="1" parent="-NDaC0I0iqczgyZ4K7Db-56">
          <mxGeometry x="30" width="810" height="30" as="geometry">
            <mxRectangle width="810" height="30" as="alternateBounds" />
          </mxGeometry>
        </mxCell>
        <mxCell id="-NDaC0I0iqczgyZ4K7Db-59" value="" style="shape=tableRow;horizontal=0;startSize=0;swimlaneHead=0;swimlaneBody=0;fillColor=none;collapsible=0;dropTarget=0;points=[[0,0.5],[1,0.5]];portConstraint=eastwest;strokeColor=inherit;top=0;left=0;right=0;bottom=0;" vertex="1" parent="-NDaC0I0iqczgyZ4K7Db-1">
          <mxGeometry y="600" width="840" height="30" as="geometry" />
        </mxCell>
        <mxCell id="-NDaC0I0iqczgyZ4K7Db-60" value="" style="shape=partialRectangle;overflow=hidden;connectable=0;fillColor=none;strokeColor=inherit;top=0;left=0;bottom=0;right=0;" vertex="1" parent="-NDaC0I0iqczgyZ4K7Db-59">
          <mxGeometry width="30" height="30" as="geometry">
            <mxRectangle width="30" height="30" as="alternateBounds" />
          </mxGeometry>
        </mxCell>
        <mxCell id="-NDaC0I0iqczgyZ4K7Db-61" value="`province` varchar(32) CHARACTER SET utf8mb4 COLLATE utf8mb4_general_ci DEFAULT NULL COMMENT &#39;省&#39;" style="shape=partialRectangle;overflow=hidden;connectable=0;fillColor=none;align=left;strokeColor=inherit;top=0;left=0;bottom=0;right=0;spacingLeft=6;" vertex="1" parent="-NDaC0I0iqczgyZ4K7Db-59">
          <mxGeometry x="30" width="810" height="30" as="geometry">
            <mxRectangle width="810" height="30" as="alternateBounds" />
          </mxGeometry>
        </mxCell>
        <mxCell id="-NDaC0I0iqczgyZ4K7Db-62" value="" style="shape=tableRow;horizontal=0;startSize=0;swimlaneHead=0;swimlaneBody=0;fillColor=none;collapsible=0;dropTarget=0;points=[[0,0.5],[1,0.5]];portConstraint=eastwest;strokeColor=inherit;top=0;left=0;right=0;bottom=0;" vertex="1" parent="-NDaC0I0iqczgyZ4K7Db-1">
          <mxGeometry y="630" width="840" height="30" as="geometry" />
        </mxCell>
        <mxCell id="-NDaC0I0iqczgyZ4K7Db-63" value="" style="shape=partialRectangle;overflow=hidden;connectable=0;fillColor=none;strokeColor=inherit;top=0;left=0;bottom=0;right=0;" vertex="1" parent="-NDaC0I0iqczgyZ4K7Db-62">
          <mxGeometry width="30" height="30" as="geometry">
            <mxRectangle width="30" height="30" as="alternateBounds" />
          </mxGeometry>
        </mxCell>
        <mxCell id="-NDaC0I0iqczgyZ4K7Db-64" value="`city` varchar(32) CHARACTER SET utf8mb4 COLLATE utf8mb4_general_ci DEFAULT NULL COMMENT &#39;市&#39;" style="shape=partialRectangle;overflow=hidden;connectable=0;fillColor=none;align=left;strokeColor=inherit;top=0;left=0;bottom=0;right=0;spacingLeft=6;" vertex="1" parent="-NDaC0I0iqczgyZ4K7Db-62">
          <mxGeometry x="30" width="810" height="30" as="geometry">
            <mxRectangle width="810" height="30" as="alternateBounds" />
          </mxGeometry>
        </mxCell>
        <mxCell id="-NDaC0I0iqczgyZ4K7Db-65" value="" style="shape=tableRow;horizontal=0;startSize=0;swimlaneHead=0;swimlaneBody=0;fillColor=none;collapsible=0;dropTarget=0;points=[[0,0.5],[1,0.5]];portConstraint=eastwest;strokeColor=inherit;top=0;left=0;right=0;bottom=0;" vertex="1" parent="-NDaC0I0iqczgyZ4K7Db-1">
          <mxGeometry y="660" width="840" height="30" as="geometry" />
        </mxCell>
        <mxCell id="-NDaC0I0iqczgyZ4K7Db-66" value="" style="shape=partialRectangle;overflow=hidden;connectable=0;fillColor=none;strokeColor=inherit;top=0;left=0;bottom=0;right=0;" vertex="1" parent="-NDaC0I0iqczgyZ4K7Db-65">
          <mxGeometry width="30" height="30" as="geometry">
            <mxRectangle width="30" height="30" as="alternateBounds" />
          </mxGeometry>
        </mxCell>
        <mxCell id="-NDaC0I0iqczgyZ4K7Db-67" value="`county` varchar(32) CHARACTER SET utf8mb4 COLLATE utf8mb4_general_ci DEFAULT NULL COMMENT &#39;区县&#39;" style="shape=partialRectangle;overflow=hidden;connectable=0;fillColor=none;align=left;strokeColor=inherit;top=0;left=0;bottom=0;right=0;spacingLeft=6;" vertex="1" parent="-NDaC0I0iqczgyZ4K7Db-65">
          <mxGeometry x="30" width="810" height="30" as="geometry">
            <mxRectangle width="810" height="30" as="alternateBounds" />
          </mxGeometry>
        </mxCell>
        <mxCell id="-NDaC0I0iqczgyZ4K7Db-68" value="" style="shape=tableRow;horizontal=0;startSize=0;swimlaneHead=0;swimlaneBody=0;fillColor=none;collapsible=0;dropTarget=0;points=[[0,0.5],[1,0.5]];portConstraint=eastwest;strokeColor=inherit;top=0;left=0;right=0;bottom=0;" vertex="1" parent="-NDaC0I0iqczgyZ4K7Db-1">
          <mxGeometry y="690" width="840" height="30" as="geometry" />
        </mxCell>
        <mxCell id="-NDaC0I0iqczgyZ4K7Db-69" value="" style="shape=partialRectangle;overflow=hidden;connectable=0;fillColor=none;strokeColor=inherit;top=0;left=0;bottom=0;right=0;" vertex="1" parent="-NDaC0I0iqczgyZ4K7Db-68">
          <mxGeometry width="30" height="30" as="geometry">
            <mxRectangle width="30" height="30" as="alternateBounds" />
          </mxGeometry>
        </mxCell>
        <mxCell id="-NDaC0I0iqczgyZ4K7Db-70" value="`township` varchar(32) CHARACTER SET utf8mb4 COLLATE utf8mb4_general_ci DEFAULT NULL COMMENT &#39;乡镇&#39;" style="shape=partialRectangle;overflow=hidden;connectable=0;fillColor=none;align=left;strokeColor=inherit;top=0;left=0;bottom=0;right=0;spacingLeft=6;" vertex="1" parent="-NDaC0I0iqczgyZ4K7Db-68">
          <mxGeometry x="30" width="810" height="30" as="geometry">
            <mxRectangle width="810" height="30" as="alternateBounds" />
          </mxGeometry>
        </mxCell>
        <mxCell id="-NDaC0I0iqczgyZ4K7Db-71" value="" style="shape=tableRow;horizontal=0;startSize=0;swimlaneHead=0;swimlaneBody=0;fillColor=none;collapsible=0;dropTarget=0;points=[[0,0.5],[1,0.5]];portConstraint=eastwest;strokeColor=inherit;top=0;left=0;right=0;bottom=0;" vertex="1" parent="-NDaC0I0iqczgyZ4K7Db-1">
          <mxGeometry y="720" width="840" height="30" as="geometry" />
        </mxCell>
        <mxCell id="-NDaC0I0iqczgyZ4K7Db-72" value="" style="shape=partialRectangle;overflow=hidden;connectable=0;fillColor=none;strokeColor=inherit;top=0;left=0;bottom=0;right=0;" vertex="1" parent="-NDaC0I0iqczgyZ4K7Db-71">
          <mxGeometry width="30" height="30" as="geometry">
            <mxRectangle width="30" height="30" as="alternateBounds" />
          </mxGeometry>
        </mxCell>
        <mxCell id="-NDaC0I0iqczgyZ4K7Db-73" value="`village` varchar(32) CHARACTER SET utf8mb4 COLLATE utf8mb4_general_ci DEFAULT NULL COMMENT &#39;村&#39;" style="shape=partialRectangle;overflow=hidden;connectable=0;fillColor=none;align=left;strokeColor=inherit;top=0;left=0;bottom=0;right=0;spacingLeft=6;" vertex="1" parent="-NDaC0I0iqczgyZ4K7Db-71">
          <mxGeometry x="30" width="810" height="30" as="geometry">
            <mxRectangle width="810" height="30" as="alternateBounds" />
          </mxGeometry>
        </mxCell>
        <mxCell id="-NDaC0I0iqczgyZ4K7Db-74" value="" style="shape=tableRow;horizontal=0;startSize=0;swimlaneHead=0;swimlaneBody=0;fillColor=none;collapsible=0;dropTarget=0;points=[[0,0.5],[1,0.5]];portConstraint=eastwest;strokeColor=inherit;top=0;left=0;right=0;bottom=0;" vertex="1" parent="-NDaC0I0iqczgyZ4K7Db-1">
          <mxGeometry y="750" width="840" height="30" as="geometry" />
        </mxCell>
        <mxCell id="-NDaC0I0iqczgyZ4K7Db-75" value="" style="shape=partialRectangle;overflow=hidden;connectable=0;fillColor=none;strokeColor=inherit;top=0;left=0;bottom=0;right=0;" vertex="1" parent="-NDaC0I0iqczgyZ4K7Db-74">
          <mxGeometry width="30" height="30" as="geometry">
            <mxRectangle width="30" height="30" as="alternateBounds" />
          </mxGeometry>
        </mxCell>
        <mxCell id="-NDaC0I0iqczgyZ4K7Db-76" value="`address` varchar(256) COLLATE utf8mb4_general_ci DEFAULT NULL COMMENT &#39;详细地址&#39;" style="shape=partialRectangle;overflow=hidden;connectable=0;fillColor=none;align=left;strokeColor=inherit;top=0;left=0;bottom=0;right=0;spacingLeft=6;" vertex="1" parent="-NDaC0I0iqczgyZ4K7Db-74">
          <mxGeometry x="30" width="810" height="30" as="geometry">
            <mxRectangle width="810" height="30" as="alternateBounds" />
          </mxGeometry>
        </mxCell>
        <mxCell id="-NDaC0I0iqczgyZ4K7Db-77" value="" style="shape=tableRow;horizontal=0;startSize=0;swimlaneHead=0;swimlaneBody=0;fillColor=none;collapsible=0;dropTarget=0;points=[[0,0.5],[1,0.5]];portConstraint=eastwest;strokeColor=inherit;top=0;left=0;right=0;bottom=0;" vertex="1" parent="-NDaC0I0iqczgyZ4K7Db-1">
          <mxGeometry y="780" width="840" height="30" as="geometry" />
        </mxCell>
        <mxCell id="-NDaC0I0iqczgyZ4K7Db-78" value="" style="shape=partialRectangle;overflow=hidden;connectable=0;fillColor=none;strokeColor=inherit;top=0;left=0;bottom=0;right=0;" vertex="1" parent="-NDaC0I0iqczgyZ4K7Db-77">
          <mxGeometry width="30" height="30" as="geometry">
            <mxRectangle width="30" height="30" as="alternateBounds" />
          </mxGeometry>
        </mxCell>
        <mxCell id="-NDaC0I0iqczgyZ4K7Db-79" value="`maintenance_engineer_name` varchar(32) CHARACTER SET utf8mb4 COLLATE utf8mb4_general_ci DEFAULT NULL COMMENT &#39;维护工程师&#39;" style="shape=partialRectangle;overflow=hidden;connectable=0;fillColor=none;align=left;strokeColor=inherit;top=0;left=0;bottom=0;right=0;spacingLeft=6;" vertex="1" parent="-NDaC0I0iqczgyZ4K7Db-77">
          <mxGeometry x="30" width="810" height="30" as="geometry">
            <mxRectangle width="810" height="30" as="alternateBounds" />
          </mxGeometry>
        </mxCell>
        <mxCell id="-NDaC0I0iqczgyZ4K7Db-80" value="" style="shape=tableRow;horizontal=0;startSize=0;swimlaneHead=0;swimlaneBody=0;fillColor=none;collapsible=0;dropTarget=0;points=[[0,0.5],[1,0.5]];portConstraint=eastwest;strokeColor=inherit;top=0;left=0;right=0;bottom=0;" vertex="1" parent="-NDaC0I0iqczgyZ4K7Db-1">
          <mxGeometry y="810" width="840" height="30" as="geometry" />
        </mxCell>
        <mxCell id="-NDaC0I0iqczgyZ4K7Db-81" value="" style="shape=partialRectangle;overflow=hidden;connectable=0;fillColor=none;strokeColor=inherit;top=0;left=0;bottom=0;right=0;" vertex="1" parent="-NDaC0I0iqczgyZ4K7Db-80">
          <mxGeometry width="30" height="30" as="geometry">
            <mxRectangle width="30" height="30" as="alternateBounds" />
          </mxGeometry>
        </mxCell>
        <mxCell id="-NDaC0I0iqczgyZ4K7Db-82" value="`maintenance_engineer_phone` char(11) CHARACTER SET utf8mb4 COLLATE utf8mb4_general_ci DEFAULT NULL COMMENT &#39;维护工程师手机号&#39;" style="shape=partialRectangle;overflow=hidden;connectable=0;fillColor=none;align=left;strokeColor=inherit;top=0;left=0;bottom=0;right=0;spacingLeft=6;" vertex="1" parent="-NDaC0I0iqczgyZ4K7Db-80">
          <mxGeometry x="30" width="810" height="30" as="geometry">
            <mxRectangle width="810" height="30" as="alternateBounds" />
          </mxGeometry>
        </mxCell>
        <mxCell id="-NDaC0I0iqczgyZ4K7Db-83" value="" style="shape=tableRow;horizontal=0;startSize=0;swimlaneHead=0;swimlaneBody=0;fillColor=none;collapsible=0;dropTarget=0;points=[[0,0.5],[1,0.5]];portConstraint=eastwest;strokeColor=inherit;top=0;left=0;right=0;bottom=0;" vertex="1" parent="-NDaC0I0iqczgyZ4K7Db-1">
          <mxGeometry y="840" width="840" height="30" as="geometry" />
        </mxCell>
        <mxCell id="-NDaC0I0iqczgyZ4K7Db-84" value="" style="shape=partialRectangle;overflow=hidden;connectable=0;fillColor=none;strokeColor=inherit;top=0;left=0;bottom=0;right=0;" vertex="1" parent="-NDaC0I0iqczgyZ4K7Db-83">
          <mxGeometry width="30" height="30" as="geometry">
            <mxRectangle width="30" height="30" as="alternateBounds" />
          </mxGeometry>
        </mxCell>
        <mxCell id="-NDaC0I0iqczgyZ4K7Db-85" value="`communication_status` tinyint DEFAULT NULL COMMENT &#39;通讯状态（每次查询时，对离线设备更新）&#39;" style="shape=partialRectangle;overflow=hidden;connectable=0;fillColor=none;align=left;strokeColor=inherit;top=0;left=0;bottom=0;right=0;spacingLeft=6;" vertex="1" parent="-NDaC0I0iqczgyZ4K7Db-83">
          <mxGeometry x="30" width="810" height="30" as="geometry">
            <mxRectangle width="810" height="30" as="alternateBounds" />
          </mxGeometry>
        </mxCell>
        <mxCell id="-NDaC0I0iqczgyZ4K7Db-86" value="" style="shape=tableRow;horizontal=0;startSize=0;swimlaneHead=0;swimlaneBody=0;fillColor=none;collapsible=0;dropTarget=0;points=[[0,0.5],[1,0.5]];portConstraint=eastwest;strokeColor=inherit;top=0;left=0;right=0;bottom=0;" vertex="1" parent="-NDaC0I0iqczgyZ4K7Db-1">
          <mxGeometry y="870" width="840" height="30" as="geometry" />
        </mxCell>
        <mxCell id="-NDaC0I0iqczgyZ4K7Db-87" value="" style="shape=partialRectangle;overflow=hidden;connectable=0;fillColor=none;strokeColor=inherit;top=0;left=0;bottom=0;right=0;" vertex="1" parent="-NDaC0I0iqczgyZ4K7Db-86">
          <mxGeometry width="30" height="30" as="geometry">
            <mxRectangle width="30" height="30" as="alternateBounds" />
          </mxGeometry>
        </mxCell>
        <mxCell id="-NDaC0I0iqczgyZ4K7Db-88" value="`generator_account_number` varchar(64) COLLATE utf8mb4_general_ci DEFAULT NULL COMMENT &#39;发电户号&#39;" style="shape=partialRectangle;overflow=hidden;connectable=0;fillColor=none;align=left;strokeColor=inherit;top=0;left=0;bottom=0;right=0;spacingLeft=6;" vertex="1" parent="-NDaC0I0iqczgyZ4K7Db-86">
          <mxGeometry x="30" width="810" height="30" as="geometry">
            <mxRectangle width="810" height="30" as="alternateBounds" />
          </mxGeometry>
        </mxCell>
        <mxCell id="-NDaC0I0iqczgyZ4K7Db-89" value="" style="shape=tableRow;horizontal=0;startSize=0;swimlaneHead=0;swimlaneBody=0;fillColor=none;collapsible=0;dropTarget=0;points=[[0,0.5],[1,0.5]];portConstraint=eastwest;strokeColor=inherit;top=0;left=0;right=0;bottom=0;" vertex="1" parent="-NDaC0I0iqczgyZ4K7Db-1">
          <mxGeometry y="900" width="840" height="30" as="geometry" />
        </mxCell>
        <mxCell id="-NDaC0I0iqczgyZ4K7Db-90" value="" style="shape=partialRectangle;overflow=hidden;connectable=0;fillColor=none;strokeColor=inherit;top=0;left=0;bottom=0;right=0;" vertex="1" parent="-NDaC0I0iqczgyZ4K7Db-89">
          <mxGeometry width="30" height="30" as="geometry">
            <mxRectangle width="30" height="30" as="alternateBounds" />
          </mxGeometry>
        </mxCell>
        <mxCell id="-NDaC0I0iqczgyZ4K7Db-91" value="`electricity_consumption_number` varchar(64) COLLATE utf8mb4_general_ci DEFAULT NULL COMMENT &#39;用电户号&#39;" style="shape=partialRectangle;overflow=hidden;connectable=0;fillColor=none;align=left;strokeColor=inherit;top=0;left=0;bottom=0;right=0;spacingLeft=6;" vertex="1" parent="-NDaC0I0iqczgyZ4K7Db-89">
          <mxGeometry x="30" width="810" height="30" as="geometry">
            <mxRectangle width="810" height="30" as="alternateBounds" />
          </mxGeometry>
        </mxCell>
        <mxCell id="-NDaC0I0iqczgyZ4K7Db-92" value="" style="shape=tableRow;horizontal=0;startSize=0;swimlaneHead=0;swimlaneBody=0;fillColor=none;collapsible=0;dropTarget=0;points=[[0,0.5],[1,0.5]];portConstraint=eastwest;strokeColor=inherit;top=0;left=0;right=0;bottom=0;" vertex="1" parent="-NDaC0I0iqczgyZ4K7Db-1">
          <mxGeometry y="930" width="840" height="30" as="geometry" />
        </mxCell>
        <mxCell id="-NDaC0I0iqczgyZ4K7Db-93" value="" style="shape=partialRectangle;overflow=hidden;connectable=0;fillColor=none;strokeColor=inherit;top=0;left=0;bottom=0;right=0;" vertex="1" parent="-NDaC0I0iqczgyZ4K7Db-92">
          <mxGeometry width="30" height="30" as="geometry">
            <mxRectangle width="30" height="30" as="alternateBounds" />
          </mxGeometry>
        </mxCell>
        <mxCell id="-NDaC0I0iqczgyZ4K7Db-94" value="`gear_position` varchar(64) CHARACTER SET utf8mb4 COLLATE utf8mb4_general_ci DEFAULT NULL COMMENT &#39;档位&#39;" style="shape=partialRectangle;overflow=hidden;connectable=0;fillColor=none;align=left;strokeColor=inherit;top=0;left=0;bottom=0;right=0;spacingLeft=6;" vertex="1" parent="-NDaC0I0iqczgyZ4K7Db-92">
          <mxGeometry x="30" width="810" height="30" as="geometry">
            <mxRectangle width="810" height="30" as="alternateBounds" />
          </mxGeometry>
        </mxCell>
        <mxCell id="-NDaC0I0iqczgyZ4K7Db-95" value="" style="shape=tableRow;horizontal=0;startSize=0;swimlaneHead=0;swimlaneBody=0;fillColor=none;collapsible=0;dropTarget=0;points=[[0,0.5],[1,0.5]];portConstraint=eastwest;strokeColor=inherit;top=0;left=0;right=0;bottom=0;" vertex="1" parent="-NDaC0I0iqczgyZ4K7Db-1">
          <mxGeometry y="960" width="840" height="30" as="geometry" />
        </mxCell>
        <mxCell id="-NDaC0I0iqczgyZ4K7Db-96" value="" style="shape=partialRectangle;overflow=hidden;connectable=0;fillColor=none;strokeColor=inherit;top=0;left=0;bottom=0;right=0;" vertex="1" parent="-NDaC0I0iqczgyZ4K7Db-95">
          <mxGeometry width="30" height="30" as="geometry">
            <mxRectangle width="30" height="30" as="alternateBounds" />
          </mxGeometry>
        </mxCell>
        <mxCell id="-NDaC0I0iqczgyZ4K7Db-97" value="`dispatch_status` tinyint DEFAULT NULL COMMENT &#39;派单状态&#39;" style="shape=partialRectangle;overflow=hidden;connectable=0;fillColor=none;align=left;strokeColor=inherit;top=0;left=0;bottom=0;right=0;spacingLeft=6;" vertex="1" parent="-NDaC0I0iqczgyZ4K7Db-95">
          <mxGeometry x="30" width="810" height="30" as="geometry">
            <mxRectangle width="810" height="30" as="alternateBounds" />
          </mxGeometry>
        </mxCell>
        <mxCell id="-NDaC0I0iqczgyZ4K7Db-98" value="" style="shape=tableRow;horizontal=0;startSize=0;swimlaneHead=0;swimlaneBody=0;fillColor=none;collapsible=0;dropTarget=0;points=[[0,0.5],[1,0.5]];portConstraint=eastwest;strokeColor=inherit;top=0;left=0;right=0;bottom=0;" vertex="1" parent="-NDaC0I0iqczgyZ4K7Db-1">
          <mxGeometry y="990" width="840" height="30" as="geometry" />
        </mxCell>
        <mxCell id="-NDaC0I0iqczgyZ4K7Db-99" value="" style="shape=partialRectangle;overflow=hidden;connectable=0;fillColor=none;strokeColor=inherit;top=0;left=0;bottom=0;right=0;" vertex="1" parent="-NDaC0I0iqczgyZ4K7Db-98">
          <mxGeometry width="30" height="30" as="geometry">
            <mxRectangle width="30" height="30" as="alternateBounds" />
          </mxGeometry>
        </mxCell>
        <mxCell id="-NDaC0I0iqczgyZ4K7Db-100" value="`power_station_status` tinyint DEFAULT NULL COMMENT &#39;电站状态&#39;" style="shape=partialRectangle;overflow=hidden;connectable=0;fillColor=none;align=left;strokeColor=inherit;top=0;left=0;bottom=0;right=0;spacingLeft=6;" vertex="1" parent="-NDaC0I0iqczgyZ4K7Db-98">
          <mxGeometry x="30" width="810" height="30" as="geometry">
            <mxRectangle width="810" height="30" as="alternateBounds" />
          </mxGeometry>
        </mxCell>
        <mxCell id="-NDaC0I0iqczgyZ4K7Db-101" value="" style="shape=tableRow;horizontal=0;startSize=0;swimlaneHead=0;swimlaneBody=0;fillColor=none;collapsible=0;dropTarget=0;points=[[0,0.5],[1,0.5]];portConstraint=eastwest;strokeColor=inherit;top=0;left=0;right=0;bottom=0;" vertex="1" parent="-NDaC0I0iqczgyZ4K7Db-1">
          <mxGeometry y="1020" width="840" height="30" as="geometry" />
        </mxCell>
        <mxCell id="-NDaC0I0iqczgyZ4K7Db-102" value="" style="shape=partialRectangle;overflow=hidden;connectable=0;fillColor=none;strokeColor=inherit;top=0;left=0;bottom=0;right=0;" vertex="1" parent="-NDaC0I0iqczgyZ4K7Db-101">
          <mxGeometry width="30" height="30" as="geometry">
            <mxRectangle width="30" height="30" as="alternateBounds" />
          </mxGeometry>
        </mxCell>
        <mxCell id="-NDaC0I0iqczgyZ4K7Db-103" value="`is_inefficient_reason` tinyint(1) DEFAULT NULL COMMENT &#39;是否添加低效原因（提供给筛选项使用）&#39;" style="shape=partialRectangle;overflow=hidden;connectable=0;fillColor=none;align=left;strokeColor=inherit;top=0;left=0;bottom=0;right=0;spacingLeft=6;" vertex="1" parent="-NDaC0I0iqczgyZ4K7Db-101">
          <mxGeometry x="30" width="810" height="30" as="geometry">
            <mxRectangle width="810" height="30" as="alternateBounds" />
          </mxGeometry>
        </mxCell>
        <mxCell id="-NDaC0I0iqczgyZ4K7Db-104" value="" style="shape=tableRow;horizontal=0;startSize=0;swimlaneHead=0;swimlaneBody=0;fillColor=none;collapsible=0;dropTarget=0;points=[[0,0.5],[1,0.5]];portConstraint=eastwest;strokeColor=inherit;top=0;left=0;right=0;bottom=0;" vertex="1" parent="-NDaC0I0iqczgyZ4K7Db-1">
          <mxGeometry y="1050" width="840" height="30" as="geometry" />
        </mxCell>
        <mxCell id="-NDaC0I0iqczgyZ4K7Db-105" value="" style="shape=partialRectangle;overflow=hidden;connectable=0;fillColor=none;strokeColor=inherit;top=0;left=0;bottom=0;right=0;" vertex="1" parent="-NDaC0I0iqczgyZ4K7Db-104">
          <mxGeometry width="30" height="30" as="geometry">
            <mxRectangle width="30" height="30" as="alternateBounds" />
          </mxGeometry>
        </mxCell>
        <mxCell id="-NDaC0I0iqczgyZ4K7Db-106" value="`inefficient_reason_id` bigint DEFAULT NULL COMMENT &#39;低效原因ID&#39;" style="shape=partialRectangle;overflow=hidden;connectable=0;fillColor=none;align=left;strokeColor=inherit;top=0;left=0;bottom=0;right=0;spacingLeft=6;" vertex="1" parent="-NDaC0I0iqczgyZ4K7Db-104">
          <mxGeometry x="30" width="810" height="30" as="geometry">
            <mxRectangle width="810" height="30" as="alternateBounds" />
          </mxGeometry>
        </mxCell>
        <mxCell id="-NDaC0I0iqczgyZ4K7Db-107" value="" style="shape=tableRow;horizontal=0;startSize=0;swimlaneHead=0;swimlaneBody=0;fillColor=none;collapsible=0;dropTarget=0;points=[[0,0.5],[1,0.5]];portConstraint=eastwest;strokeColor=inherit;top=0;left=0;right=0;bottom=0;" vertex="1" parent="-NDaC0I0iqczgyZ4K7Db-1">
          <mxGeometry y="1080" width="840" height="30" as="geometry" />
        </mxCell>
        <mxCell id="-NDaC0I0iqczgyZ4K7Db-108" value="" style="shape=partialRectangle;overflow=hidden;connectable=0;fillColor=none;strokeColor=inherit;top=0;left=0;bottom=0;right=0;" vertex="1" parent="-NDaC0I0iqczgyZ4K7Db-107">
          <mxGeometry width="30" height="30" as="geometry">
            <mxRectangle width="30" height="30" as="alternateBounds" />
          </mxGeometry>
        </mxCell>
        <mxCell id="-NDaC0I0iqczgyZ4K7Db-109" value="`is_auto` tinyint(1) DEFAULT NULL COMMENT &#39;标杆生成来源&#39;" style="shape=partialRectangle;overflow=hidden;connectable=0;fillColor=none;align=left;strokeColor=inherit;top=0;left=0;bottom=0;right=0;spacingLeft=6;" vertex="1" parent="-NDaC0I0iqczgyZ4K7Db-107">
          <mxGeometry x="30" width="810" height="30" as="geometry">
            <mxRectangle width="810" height="30" as="alternateBounds" />
          </mxGeometry>
        </mxCell>
        <mxCell id="-NDaC0I0iqczgyZ4K7Db-110" value="" style="shape=tableRow;horizontal=0;startSize=0;swimlaneHead=0;swimlaneBody=0;fillColor=none;collapsible=0;dropTarget=0;points=[[0,0.5],[1,0.5]];portConstraint=eastwest;strokeColor=inherit;top=0;left=0;right=0;bottom=0;" vertex="1" parent="-NDaC0I0iqczgyZ4K7Db-1">
          <mxGeometry y="1110" width="840" height="30" as="geometry" />
        </mxCell>
        <mxCell id="-NDaC0I0iqczgyZ4K7Db-111" value="" style="shape=partialRectangle;overflow=hidden;connectable=0;fillColor=none;strokeColor=inherit;top=0;left=0;bottom=0;right=0;" vertex="1" parent="-NDaC0I0iqczgyZ4K7Db-110">
          <mxGeometry width="30" height="30" as="geometry">
            <mxRectangle width="30" height="30" as="alternateBounds" />
          </mxGeometry>
        </mxCell>
        <mxCell id="-NDaC0I0iqczgyZ4K7Db-112" value="`cancel_id` bigint DEFAULT NULL COMMENT &#39;标杆、示范电站取消ID&#39;" style="shape=partialRectangle;overflow=hidden;connectable=0;fillColor=none;align=left;strokeColor=inherit;top=0;left=0;bottom=0;right=0;spacingLeft=6;" vertex="1" parent="-NDaC0I0iqczgyZ4K7Db-110">
          <mxGeometry x="30" width="810" height="30" as="geometry">
            <mxRectangle width="810" height="30" as="alternateBounds" />
          </mxGeometry>
        </mxCell>
        <mxCell id="-NDaC0I0iqczgyZ4K7Db-113" value="" style="shape=tableRow;horizontal=0;startSize=0;swimlaneHead=0;swimlaneBody=0;fillColor=none;collapsible=0;dropTarget=0;points=[[0,0.5],[1,0.5]];portConstraint=eastwest;strokeColor=inherit;top=0;left=0;right=0;bottom=0;" vertex="1" parent="-NDaC0I0iqczgyZ4K7Db-1">
          <mxGeometry y="1140" width="840" height="30" as="geometry" />
        </mxCell>
        <mxCell id="-NDaC0I0iqczgyZ4K7Db-114" value="" style="shape=partialRectangle;overflow=hidden;connectable=0;fillColor=none;strokeColor=inherit;top=0;left=0;bottom=0;right=0;" vertex="1" parent="-NDaC0I0iqczgyZ4K7Db-113">
          <mxGeometry width="30" height="30" as="geometry">
            <mxRectangle width="30" height="30" as="alternateBounds" />
          </mxGeometry>
        </mxCell>
        <mxCell id="-NDaC0I0iqczgyZ4K7Db-115" value="`create_time` datetime DEFAULT NULL COMMENT &#39;创建时间&#39;" style="shape=partialRectangle;overflow=hidden;connectable=0;fillColor=none;align=left;strokeColor=inherit;top=0;left=0;bottom=0;right=0;spacingLeft=6;" vertex="1" parent="-NDaC0I0iqczgyZ4K7Db-113">
          <mxGeometry x="30" width="810" height="30" as="geometry">
            <mxRectangle width="810" height="30" as="alternateBounds" />
          </mxGeometry>
        </mxCell>
        <mxCell id="-NDaC0I0iqczgyZ4K7Db-116" value="" style="shape=tableRow;horizontal=0;startSize=0;swimlaneHead=0;swimlaneBody=0;fillColor=none;collapsible=0;dropTarget=0;points=[[0,0.5],[1,0.5]];portConstraint=eastwest;strokeColor=inherit;top=0;left=0;right=0;bottom=0;" vertex="1" parent="-NDaC0I0iqczgyZ4K7Db-1">
          <mxGeometry y="1170" width="840" height="30" as="geometry" />
        </mxCell>
        <mxCell id="-NDaC0I0iqczgyZ4K7Db-117" value="" style="shape=partialRectangle;overflow=hidden;connectable=0;fillColor=none;strokeColor=inherit;top=0;left=0;bottom=0;right=0;" vertex="1" parent="-NDaC0I0iqczgyZ4K7Db-116">
          <mxGeometry width="30" height="30" as="geometry">
            <mxRectangle width="30" height="30" as="alternateBounds" />
          </mxGeometry>
        </mxCell>
        <mxCell id="-NDaC0I0iqczgyZ4K7Db-118" value="`create_by` bigint DEFAULT NULL COMMENT &#39;创建人&#39;" style="shape=partialRectangle;overflow=hidden;connectable=0;fillColor=none;align=left;strokeColor=inherit;top=0;left=0;bottom=0;right=0;spacingLeft=6;" vertex="1" parent="-NDaC0I0iqczgyZ4K7Db-116">
          <mxGeometry x="30" width="810" height="30" as="geometry">
            <mxRectangle width="810" height="30" as="alternateBounds" />
          </mxGeometry>
        </mxCell>
        <mxCell id="-NDaC0I0iqczgyZ4K7Db-119" value="" style="shape=tableRow;horizontal=0;startSize=0;swimlaneHead=0;swimlaneBody=0;fillColor=none;collapsible=0;dropTarget=0;points=[[0,0.5],[1,0.5]];portConstraint=eastwest;strokeColor=inherit;top=0;left=0;right=0;bottom=0;" vertex="1" parent="-NDaC0I0iqczgyZ4K7Db-1">
          <mxGeometry y="1200" width="840" height="30" as="geometry" />
        </mxCell>
        <mxCell id="-NDaC0I0iqczgyZ4K7Db-120" value="" style="shape=partialRectangle;overflow=hidden;connectable=0;fillColor=none;strokeColor=inherit;top=0;left=0;bottom=0;right=0;" vertex="1" parent="-NDaC0I0iqczgyZ4K7Db-119">
          <mxGeometry width="30" height="30" as="geometry">
            <mxRectangle width="30" height="30" as="alternateBounds" />
          </mxGeometry>
        </mxCell>
        <mxCell id="-NDaC0I0iqczgyZ4K7Db-121" value="`update_time` datetime DEFAULT NULL COMMENT &#39;更新时间&#39;" style="shape=partialRectangle;overflow=hidden;connectable=0;fillColor=none;align=left;strokeColor=inherit;top=0;left=0;bottom=0;right=0;spacingLeft=6;" vertex="1" parent="-NDaC0I0iqczgyZ4K7Db-119">
          <mxGeometry x="30" width="810" height="30" as="geometry">
            <mxRectangle width="810" height="30" as="alternateBounds" />
          </mxGeometry>
        </mxCell>
        <mxCell id="-NDaC0I0iqczgyZ4K7Db-122" value="" style="shape=tableRow;horizontal=0;startSize=0;swimlaneHead=0;swimlaneBody=0;fillColor=none;collapsible=0;dropTarget=0;points=[[0,0.5],[1,0.5]];portConstraint=eastwest;strokeColor=inherit;top=0;left=0;right=0;bottom=0;" vertex="1" parent="-NDaC0I0iqczgyZ4K7Db-1">
          <mxGeometry y="1230" width="840" height="30" as="geometry" />
        </mxCell>
        <mxCell id="-NDaC0I0iqczgyZ4K7Db-123" value="" style="shape=partialRectangle;overflow=hidden;connectable=0;fillColor=none;strokeColor=inherit;top=0;left=0;bottom=0;right=0;" vertex="1" parent="-NDaC0I0iqczgyZ4K7Db-122">
          <mxGeometry width="30" height="30" as="geometry">
            <mxRectangle width="30" height="30" as="alternateBounds" />
          </mxGeometry>
        </mxCell>
        <mxCell id="-NDaC0I0iqczgyZ4K7Db-124" value="`update_by` bigint DEFAULT NULL COMMENT &#39;更新人&#39;" style="shape=partialRectangle;overflow=hidden;connectable=0;fillColor=none;align=left;strokeColor=inherit;top=0;left=0;bottom=0;right=0;spacingLeft=6;" vertex="1" parent="-NDaC0I0iqczgyZ4K7Db-122">
          <mxGeometry x="30" width="810" height="30" as="geometry">
            <mxRectangle width="810" height="30" as="alternateBounds" />
          </mxGeometry>
        </mxCell>
        <mxCell id="-NDaC0I0iqczgyZ4K7Db-126" value="`power_station_cancel`" style="shape=table;startSize=30;container=1;collapsible=1;childLayout=tableLayout;fixedRows=1;rowLines=0;fontStyle=1;align=center;resizeLast=1;" vertex="1" parent="1">
          <mxGeometry x="1380" y="-540" width="870" height="240" as="geometry" />
        </mxCell>
        <mxCell id="-NDaC0I0iqczgyZ4K7Db-127" value="" style="shape=tableRow;horizontal=0;startSize=0;swimlaneHead=0;swimlaneBody=0;fillColor=none;collapsible=0;dropTarget=0;points=[[0,0.5],[1,0.5]];portConstraint=eastwest;strokeColor=inherit;top=0;left=0;right=0;bottom=1;" vertex="1" parent="-NDaC0I0iqczgyZ4K7Db-126">
          <mxGeometry y="30" width="870" height="30" as="geometry" />
        </mxCell>
        <mxCell id="-NDaC0I0iqczgyZ4K7Db-128" value="PK" style="shape=partialRectangle;overflow=hidden;connectable=0;fillColor=none;strokeColor=inherit;top=0;left=0;bottom=0;right=0;fontStyle=1;" vertex="1" parent="-NDaC0I0iqczgyZ4K7Db-127">
          <mxGeometry width="30" height="30" as="geometry">
            <mxRectangle width="30" height="30" as="alternateBounds" />
          </mxGeometry>
        </mxCell>
        <mxCell id="-NDaC0I0iqczgyZ4K7Db-129" value="`id` bigint NOT NULL AUTO_INCREMENT" style="shape=partialRectangle;overflow=hidden;connectable=0;fillColor=none;align=left;strokeColor=inherit;top=0;left=0;bottom=0;right=0;spacingLeft=6;fontStyle=5;" vertex="1" parent="-NDaC0I0iqczgyZ4K7Db-127">
          <mxGeometry x="30" width="840" height="30" as="geometry">
            <mxRectangle width="840" height="30" as="alternateBounds" />
          </mxGeometry>
        </mxCell>
        <mxCell id="-NDaC0I0iqczgyZ4K7Db-130" value="" style="shape=tableRow;horizontal=0;startSize=0;swimlaneHead=0;swimlaneBody=0;fillColor=none;collapsible=0;dropTarget=0;points=[[0,0.5],[1,0.5]];portConstraint=eastwest;strokeColor=inherit;top=0;left=0;right=0;bottom=0;" vertex="1" parent="-NDaC0I0iqczgyZ4K7Db-126">
          <mxGeometry y="60" width="870" height="30" as="geometry" />
        </mxCell>
        <mxCell id="-NDaC0I0iqczgyZ4K7Db-131" value="" style="shape=partialRectangle;overflow=hidden;connectable=0;fillColor=none;strokeColor=inherit;top=0;left=0;bottom=0;right=0;" vertex="1" parent="-NDaC0I0iqczgyZ4K7Db-130">
          <mxGeometry width="30" height="30" as="geometry">
            <mxRectangle width="30" height="30" as="alternateBounds" />
          </mxGeometry>
        </mxCell>
        <mxCell id="-NDaC0I0iqczgyZ4K7Db-132" value="`ps_id` bigint DEFAULT NULL COMMENT &#39;电站ID&#39;" style="shape=partialRectangle;overflow=hidden;connectable=0;fillColor=none;align=left;strokeColor=inherit;top=0;left=0;bottom=0;right=0;spacingLeft=6;" vertex="1" parent="-NDaC0I0iqczgyZ4K7Db-130">
          <mxGeometry x="30" width="840" height="30" as="geometry">
            <mxRectangle width="840" height="30" as="alternateBounds" />
          </mxGeometry>
        </mxCell>
        <mxCell id="-NDaC0I0iqczgyZ4K7Db-133" value="" style="shape=tableRow;horizontal=0;startSize=0;swimlaneHead=0;swimlaneBody=0;fillColor=none;collapsible=0;dropTarget=0;points=[[0,0.5],[1,0.5]];portConstraint=eastwest;strokeColor=inherit;top=0;left=0;right=0;bottom=0;" vertex="1" parent="-NDaC0I0iqczgyZ4K7Db-126">
          <mxGeometry y="90" width="870" height="30" as="geometry" />
        </mxCell>
        <mxCell id="-NDaC0I0iqczgyZ4K7Db-134" value="" style="shape=partialRectangle;overflow=hidden;connectable=0;fillColor=none;strokeColor=inherit;top=0;left=0;bottom=0;right=0;" vertex="1" parent="-NDaC0I0iqczgyZ4K7Db-133">
          <mxGeometry width="30" height="30" as="geometry">
            <mxRectangle width="30" height="30" as="alternateBounds" />
          </mxGeometry>
        </mxCell>
        <mxCell id="-NDaC0I0iqczgyZ4K7Db-135" value="`rejection_reason` varchar(400) COLLATE utf8mb4_general_ci DEFAULT NULL COMMENT &#39;驳回原因&#39;" style="shape=partialRectangle;overflow=hidden;connectable=0;fillColor=none;align=left;strokeColor=inherit;top=0;left=0;bottom=0;right=0;spacingLeft=6;" vertex="1" parent="-NDaC0I0iqczgyZ4K7Db-133">
          <mxGeometry x="30" width="840" height="30" as="geometry">
            <mxRectangle width="840" height="30" as="alternateBounds" />
          </mxGeometry>
        </mxCell>
        <mxCell id="-NDaC0I0iqczgyZ4K7Db-136" value="" style="shape=tableRow;horizontal=0;startSize=0;swimlaneHead=0;swimlaneBody=0;fillColor=none;collapsible=0;dropTarget=0;points=[[0,0.5],[1,0.5]];portConstraint=eastwest;strokeColor=inherit;top=0;left=0;right=0;bottom=0;" vertex="1" parent="-NDaC0I0iqczgyZ4K7Db-126">
          <mxGeometry y="120" width="870" height="30" as="geometry" />
        </mxCell>
        <mxCell id="-NDaC0I0iqczgyZ4K7Db-137" value="" style="shape=partialRectangle;overflow=hidden;connectable=0;fillColor=none;strokeColor=inherit;top=0;left=0;bottom=0;right=0;" vertex="1" parent="-NDaC0I0iqczgyZ4K7Db-136">
          <mxGeometry width="30" height="30" as="geometry">
            <mxRectangle width="30" height="30" as="alternateBounds" />
          </mxGeometry>
        </mxCell>
        <mxCell id="-NDaC0I0iqczgyZ4K7Db-138" value="`cancel_reason` varchar(400) CHARACTER SET utf8mb4 COLLATE utf8mb4_general_ci DEFAULT NULL COMMENT &#39;取消原因&#39;" style="shape=partialRectangle;overflow=hidden;connectable=0;fillColor=none;align=left;strokeColor=inherit;top=0;left=0;bottom=0;right=0;spacingLeft=6;" vertex="1" parent="-NDaC0I0iqczgyZ4K7Db-136">
          <mxGeometry x="30" width="840" height="30" as="geometry">
            <mxRectangle width="840" height="30" as="alternateBounds" />
          </mxGeometry>
        </mxCell>
        <mxCell id="-NDaC0I0iqczgyZ4K7Db-139" value="" style="shape=tableRow;horizontal=0;startSize=0;swimlaneHead=0;swimlaneBody=0;fillColor=none;collapsible=0;dropTarget=0;points=[[0,0.5],[1,0.5]];portConstraint=eastwest;strokeColor=inherit;top=0;left=0;right=0;bottom=0;" vertex="1" parent="-NDaC0I0iqczgyZ4K7Db-126">
          <mxGeometry y="150" width="870" height="30" as="geometry" />
        </mxCell>
        <mxCell id="-NDaC0I0iqczgyZ4K7Db-140" value="" style="shape=partialRectangle;overflow=hidden;connectable=0;fillColor=none;strokeColor=inherit;top=0;left=0;bottom=0;right=0;" vertex="1" parent="-NDaC0I0iqczgyZ4K7Db-139">
          <mxGeometry width="30" height="30" as="geometry">
            <mxRectangle width="30" height="30" as="alternateBounds" />
          </mxGeometry>
        </mxCell>
        <mxCell id="-NDaC0I0iqczgyZ4K7Db-141" value="`upload_data` varchar(500) CHARACTER SET utf8mb4 COLLATE utf8mb4_general_ci DEFAULT NULL COMMENT &#39;上传数据&#39;" style="shape=partialRectangle;overflow=hidden;connectable=0;fillColor=none;align=left;strokeColor=inherit;top=0;left=0;bottom=0;right=0;spacingLeft=6;" vertex="1" parent="-NDaC0I0iqczgyZ4K7Db-139">
          <mxGeometry x="30" width="840" height="30" as="geometry">
            <mxRectangle width="840" height="30" as="alternateBounds" />
          </mxGeometry>
        </mxCell>
        <mxCell id="-NDaC0I0iqczgyZ4K7Db-142" value="" style="shape=tableRow;horizontal=0;startSize=0;swimlaneHead=0;swimlaneBody=0;fillColor=none;collapsible=0;dropTarget=0;points=[[0,0.5],[1,0.5]];portConstraint=eastwest;strokeColor=inherit;top=0;left=0;right=0;bottom=0;" vertex="1" parent="-NDaC0I0iqczgyZ4K7Db-126">
          <mxGeometry y="180" width="870" height="30" as="geometry" />
        </mxCell>
        <mxCell id="-NDaC0I0iqczgyZ4K7Db-143" value="" style="shape=partialRectangle;overflow=hidden;connectable=0;fillColor=none;strokeColor=inherit;top=0;left=0;bottom=0;right=0;" vertex="1" parent="-NDaC0I0iqczgyZ4K7Db-142">
          <mxGeometry width="30" height="30" as="geometry">
            <mxRectangle width="30" height="30" as="alternateBounds" />
          </mxGeometry>
        </mxCell>
        <mxCell id="-NDaC0I0iqczgyZ4K7Db-144" value="`create_time` datetime DEFAULT NULL COMMENT &#39;创建时间&#39;" style="shape=partialRectangle;overflow=hidden;connectable=0;fillColor=none;align=left;strokeColor=inherit;top=0;left=0;bottom=0;right=0;spacingLeft=6;" vertex="1" parent="-NDaC0I0iqczgyZ4K7Db-142">
          <mxGeometry x="30" width="840" height="30" as="geometry">
            <mxRectangle width="840" height="30" as="alternateBounds" />
          </mxGeometry>
        </mxCell>
        <mxCell id="-NDaC0I0iqczgyZ4K7Db-145" value="" style="shape=tableRow;horizontal=0;startSize=0;swimlaneHead=0;swimlaneBody=0;fillColor=none;collapsible=0;dropTarget=0;points=[[0,0.5],[1,0.5]];portConstraint=eastwest;strokeColor=inherit;top=0;left=0;right=0;bottom=0;" vertex="1" parent="-NDaC0I0iqczgyZ4K7Db-126">
          <mxGeometry y="210" width="870" height="30" as="geometry" />
        </mxCell>
        <mxCell id="-NDaC0I0iqczgyZ4K7Db-146" value="" style="shape=partialRectangle;overflow=hidden;connectable=0;fillColor=none;strokeColor=inherit;top=0;left=0;bottom=0;right=0;" vertex="1" parent="-NDaC0I0iqczgyZ4K7Db-145">
          <mxGeometry width="30" height="30" as="geometry">
            <mxRectangle width="30" height="30" as="alternateBounds" />
          </mxGeometry>
        </mxCell>
        <mxCell id="-NDaC0I0iqczgyZ4K7Db-147" value="`create_by` bigint DEFAULT NULL COMMENT &#39;创建人&#39;" style="shape=partialRectangle;overflow=hidden;connectable=0;fillColor=none;align=left;strokeColor=inherit;top=0;left=0;bottom=0;right=0;spacingLeft=6;" vertex="1" parent="-NDaC0I0iqczgyZ4K7Db-145">
          <mxGeometry x="30" width="840" height="30" as="geometry">
            <mxRectangle width="840" height="30" as="alternateBounds" />
          </mxGeometry>
        </mxCell>
        <mxCell id="-NDaC0I0iqczgyZ4K7Db-149" style="edgeStyle=orthogonalEdgeStyle;rounded=0;orthogonalLoop=1;jettySize=auto;html=1;exitX=1;exitY=0.5;exitDx=0;exitDy=0;" edge="1" parent="1" source="-NDaC0I0iqczgyZ4K7Db-2" target="-NDaC0I0iqczgyZ4K7Db-130">
          <mxGeometry relative="1" as="geometry" />
        </mxCell>
        <mxCell id="-NDaC0I0iqczgyZ4K7Db-150" value="1:1" style="edgeLabel;html=1;align=center;verticalAlign=middle;resizable=0;points=[];" vertex="1" connectable="0" parent="-NDaC0I0iqczgyZ4K7Db-149">
          <mxGeometry x="-0.13" y="3" relative="1" as="geometry">
            <mxPoint as="offset" />
          </mxGeometry>
        </mxCell>
        <mxCell id="-NDaC0I0iqczgyZ4K7Db-152" value="`power_station_inefficient_reason`" style="shape=table;startSize=30;container=1;collapsible=1;childLayout=tableLayout;fixedRows=1;rowLines=0;fontStyle=1;align=center;resizeLast=1;" vertex="1" parent="1">
          <mxGeometry x="1275" y="500" width="840" height="240" as="geometry" />
        </mxCell>
        <mxCell id="-NDaC0I0iqczgyZ4K7Db-153" value="" style="shape=tableRow;horizontal=0;startSize=0;swimlaneHead=0;swimlaneBody=0;fillColor=none;collapsible=0;dropTarget=0;points=[[0,0.5],[1,0.5]];portConstraint=eastwest;strokeColor=inherit;top=0;left=0;right=0;bottom=1;" vertex="1" parent="-NDaC0I0iqczgyZ4K7Db-152">
          <mxGeometry y="30" width="840" height="30" as="geometry" />
        </mxCell>
        <mxCell id="-NDaC0I0iqczgyZ4K7Db-154" value="PK" style="shape=partialRectangle;overflow=hidden;connectable=0;fillColor=none;strokeColor=inherit;top=0;left=0;bottom=0;right=0;fontStyle=1;" vertex="1" parent="-NDaC0I0iqczgyZ4K7Db-153">
          <mxGeometry width="30" height="30" as="geometry">
            <mxRectangle width="30" height="30" as="alternateBounds" />
          </mxGeometry>
        </mxCell>
        <mxCell id="-NDaC0I0iqczgyZ4K7Db-155" value="`id` bigint NOT NULL AUTO_INCREMENT" style="shape=partialRectangle;overflow=hidden;connectable=0;fillColor=none;align=left;strokeColor=inherit;top=0;left=0;bottom=0;right=0;spacingLeft=6;fontStyle=5;" vertex="1" parent="-NDaC0I0iqczgyZ4K7Db-153">
          <mxGeometry x="30" width="810" height="30" as="geometry">
            <mxRectangle width="810" height="30" as="alternateBounds" />
          </mxGeometry>
        </mxCell>
        <mxCell id="-NDaC0I0iqczgyZ4K7Db-156" value="" style="shape=tableRow;horizontal=0;startSize=0;swimlaneHead=0;swimlaneBody=0;fillColor=none;collapsible=0;dropTarget=0;points=[[0,0.5],[1,0.5]];portConstraint=eastwest;strokeColor=inherit;top=0;left=0;right=0;bottom=0;" vertex="1" parent="-NDaC0I0iqczgyZ4K7Db-152">
          <mxGeometry y="60" width="840" height="30" as="geometry" />
        </mxCell>
        <mxCell id="-NDaC0I0iqczgyZ4K7Db-157" value="" style="shape=partialRectangle;overflow=hidden;connectable=0;fillColor=none;strokeColor=inherit;top=0;left=0;bottom=0;right=0;" vertex="1" parent="-NDaC0I0iqczgyZ4K7Db-156">
          <mxGeometry width="30" height="30" as="geometry">
            <mxRectangle width="30" height="30" as="alternateBounds" />
          </mxGeometry>
        </mxCell>
        <mxCell id="-NDaC0I0iqczgyZ4K7Db-158" value="`reason` varchar(200) CHARACTER SET utf8mb4 COLLATE utf8mb4_general_ci DEFAULT NULL COMMENT &#39;不达标原因&#39;" style="shape=partialRectangle;overflow=hidden;connectable=0;fillColor=none;align=left;strokeColor=inherit;top=0;left=0;bottom=0;right=0;spacingLeft=6;" vertex="1" parent="-NDaC0I0iqczgyZ4K7Db-156">
          <mxGeometry x="30" width="810" height="30" as="geometry">
            <mxRectangle width="810" height="30" as="alternateBounds" />
          </mxGeometry>
        </mxCell>
        <mxCell id="-NDaC0I0iqczgyZ4K7Db-159" value="" style="shape=tableRow;horizontal=0;startSize=0;swimlaneHead=0;swimlaneBody=0;fillColor=none;collapsible=0;dropTarget=0;points=[[0,0.5],[1,0.5]];portConstraint=eastwest;strokeColor=inherit;top=0;left=0;right=0;bottom=0;" vertex="1" parent="-NDaC0I0iqczgyZ4K7Db-152">
          <mxGeometry y="90" width="840" height="30" as="geometry" />
        </mxCell>
        <mxCell id="-NDaC0I0iqczgyZ4K7Db-160" value="" style="shape=partialRectangle;overflow=hidden;connectable=0;fillColor=none;strokeColor=inherit;top=0;left=0;bottom=0;right=0;" vertex="1" parent="-NDaC0I0iqczgyZ4K7Db-159">
          <mxGeometry width="30" height="30" as="geometry">
            <mxRectangle width="30" height="30" as="alternateBounds" />
          </mxGeometry>
        </mxCell>
        <mxCell id="-NDaC0I0iqczgyZ4K7Db-161" value="`descs` varchar(400) CHARACTER SET utf8mb4 COLLATE utf8mb4_general_ci DEFAULT NULL COMMENT &#39;描述&#39;" style="shape=partialRectangle;overflow=hidden;connectable=0;fillColor=none;align=left;strokeColor=inherit;top=0;left=0;bottom=0;right=0;spacingLeft=6;" vertex="1" parent="-NDaC0I0iqczgyZ4K7Db-159">
          <mxGeometry x="30" width="810" height="30" as="geometry">
            <mxRectangle width="810" height="30" as="alternateBounds" />
          </mxGeometry>
        </mxCell>
        <mxCell id="-NDaC0I0iqczgyZ4K7Db-162" value="" style="shape=tableRow;horizontal=0;startSize=0;swimlaneHead=0;swimlaneBody=0;fillColor=none;collapsible=0;dropTarget=0;points=[[0,0.5],[1,0.5]];portConstraint=eastwest;strokeColor=inherit;top=0;left=0;right=0;bottom=0;" vertex="1" parent="-NDaC0I0iqczgyZ4K7Db-152">
          <mxGeometry y="120" width="840" height="30" as="geometry" />
        </mxCell>
        <mxCell id="-NDaC0I0iqczgyZ4K7Db-163" value="" style="shape=partialRectangle;overflow=hidden;connectable=0;fillColor=none;strokeColor=inherit;top=0;left=0;bottom=0;right=0;" vertex="1" parent="-NDaC0I0iqczgyZ4K7Db-162">
          <mxGeometry width="30" height="30" as="geometry">
            <mxRectangle width="30" height="30" as="alternateBounds" />
          </mxGeometry>
        </mxCell>
        <mxCell id="-NDaC0I0iqczgyZ4K7Db-164" value="`create_time` datetime DEFAULT NULL COMMENT &#39;创建时间&#39;" style="shape=partialRectangle;overflow=hidden;connectable=0;fillColor=none;align=left;strokeColor=inherit;top=0;left=0;bottom=0;right=0;spacingLeft=6;" vertex="1" parent="-NDaC0I0iqczgyZ4K7Db-162">
          <mxGeometry x="30" width="810" height="30" as="geometry">
            <mxRectangle width="810" height="30" as="alternateBounds" />
          </mxGeometry>
        </mxCell>
        <mxCell id="-NDaC0I0iqczgyZ4K7Db-165" value="" style="shape=tableRow;horizontal=0;startSize=0;swimlaneHead=0;swimlaneBody=0;fillColor=none;collapsible=0;dropTarget=0;points=[[0,0.5],[1,0.5]];portConstraint=eastwest;strokeColor=inherit;top=0;left=0;right=0;bottom=0;" vertex="1" parent="-NDaC0I0iqczgyZ4K7Db-152">
          <mxGeometry y="150" width="840" height="30" as="geometry" />
        </mxCell>
        <mxCell id="-NDaC0I0iqczgyZ4K7Db-166" value="" style="shape=partialRectangle;overflow=hidden;connectable=0;fillColor=none;strokeColor=inherit;top=0;left=0;bottom=0;right=0;" vertex="1" parent="-NDaC0I0iqczgyZ4K7Db-165">
          <mxGeometry width="30" height="30" as="geometry">
            <mxRectangle width="30" height="30" as="alternateBounds" />
          </mxGeometry>
        </mxCell>
        <mxCell id="-NDaC0I0iqczgyZ4K7Db-167" value="`create_by` bigint DEFAULT NULL COMMENT &#39;创建人&#39;" style="shape=partialRectangle;overflow=hidden;connectable=0;fillColor=none;align=left;strokeColor=inherit;top=0;left=0;bottom=0;right=0;spacingLeft=6;" vertex="1" parent="-NDaC0I0iqczgyZ4K7Db-165">
          <mxGeometry x="30" width="810" height="30" as="geometry">
            <mxRectangle width="810" height="30" as="alternateBounds" />
          </mxGeometry>
        </mxCell>
        <mxCell id="-NDaC0I0iqczgyZ4K7Db-168" value="" style="shape=tableRow;horizontal=0;startSize=0;swimlaneHead=0;swimlaneBody=0;fillColor=none;collapsible=0;dropTarget=0;points=[[0,0.5],[1,0.5]];portConstraint=eastwest;strokeColor=inherit;top=0;left=0;right=0;bottom=0;" vertex="1" parent="-NDaC0I0iqczgyZ4K7Db-152">
          <mxGeometry y="180" width="840" height="30" as="geometry" />
        </mxCell>
        <mxCell id="-NDaC0I0iqczgyZ4K7Db-169" value="" style="shape=partialRectangle;overflow=hidden;connectable=0;fillColor=none;strokeColor=inherit;top=0;left=0;bottom=0;right=0;" vertex="1" parent="-NDaC0I0iqczgyZ4K7Db-168">
          <mxGeometry width="30" height="30" as="geometry">
            <mxRectangle width="30" height="30" as="alternateBounds" />
          </mxGeometry>
        </mxCell>
        <mxCell id="-NDaC0I0iqczgyZ4K7Db-170" value="`update_time` datetime DEFAULT NULL COMMENT &#39;更新时间&#39;" style="shape=partialRectangle;overflow=hidden;connectable=0;fillColor=none;align=left;strokeColor=inherit;top=0;left=0;bottom=0;right=0;spacingLeft=6;" vertex="1" parent="-NDaC0I0iqczgyZ4K7Db-168">
          <mxGeometry x="30" width="810" height="30" as="geometry">
            <mxRectangle width="810" height="30" as="alternateBounds" />
          </mxGeometry>
        </mxCell>
        <mxCell id="-NDaC0I0iqczgyZ4K7Db-171" value="" style="shape=tableRow;horizontal=0;startSize=0;swimlaneHead=0;swimlaneBody=0;fillColor=none;collapsible=0;dropTarget=0;points=[[0,0.5],[1,0.5]];portConstraint=eastwest;strokeColor=inherit;top=0;left=0;right=0;bottom=0;" vertex="1" parent="-NDaC0I0iqczgyZ4K7Db-152">
          <mxGeometry y="210" width="840" height="30" as="geometry" />
        </mxCell>
        <mxCell id="-NDaC0I0iqczgyZ4K7Db-172" value="" style="shape=partialRectangle;overflow=hidden;connectable=0;fillColor=none;strokeColor=inherit;top=0;left=0;bottom=0;right=0;" vertex="1" parent="-NDaC0I0iqczgyZ4K7Db-171">
          <mxGeometry width="30" height="30" as="geometry">
            <mxRectangle width="30" height="30" as="alternateBounds" />
          </mxGeometry>
        </mxCell>
        <mxCell id="-NDaC0I0iqczgyZ4K7Db-173" value="`update_by` bigint DEFAULT NULL COMMENT &#39;更新人&#39;" style="shape=partialRectangle;overflow=hidden;connectable=0;fillColor=none;align=left;strokeColor=inherit;top=0;left=0;bottom=0;right=0;spacingLeft=6;" vertex="1" parent="-NDaC0I0iqczgyZ4K7Db-171">
          <mxGeometry x="30" width="810" height="30" as="geometry">
            <mxRectangle width="810" height="30" as="alternateBounds" />
          </mxGeometry>
        </mxCell>
        <mxCell id="-NDaC0I0iqczgyZ4K7Db-174" value="1:1" style="edgeStyle=orthogonalEdgeStyle;rounded=0;orthogonalLoop=1;jettySize=auto;html=1;entryX=0;entryY=0.5;entryDx=0;entryDy=0;exitX=1;exitY=0.217;exitDx=0;exitDy=0;exitPerimeter=0;" edge="1" parent="1" source="-NDaC0I0iqczgyZ4K7Db-104" target="-NDaC0I0iqczgyZ4K7Db-153">
          <mxGeometry relative="1" as="geometry" />
        </mxCell>
        <mxCell id="-NDaC0I0iqczgyZ4K7Db-175" value="`power_station_change_record`" style="shape=table;startSize=30;container=1;collapsible=1;childLayout=tableLayout;fixedRows=1;rowLines=0;fontStyle=1;align=center;resizeLast=1;" vertex="1" parent="1">
          <mxGeometry x="1310" y="-190" width="1130" height="540" as="geometry" />
        </mxCell>
        <mxCell id="-NDaC0I0iqczgyZ4K7Db-176" value="" style="shape=tableRow;horizontal=0;startSize=0;swimlaneHead=0;swimlaneBody=0;fillColor=none;collapsible=0;dropTarget=0;points=[[0,0.5],[1,0.5]];portConstraint=eastwest;strokeColor=inherit;top=0;left=0;right=0;bottom=1;" vertex="1" parent="-NDaC0I0iqczgyZ4K7Db-175">
          <mxGeometry y="30" width="1130" height="30" as="geometry" />
        </mxCell>
        <mxCell id="-NDaC0I0iqczgyZ4K7Db-177" value="PK" style="shape=partialRectangle;overflow=hidden;connectable=0;fillColor=none;strokeColor=inherit;top=0;left=0;bottom=0;right=0;fontStyle=1;" vertex="1" parent="-NDaC0I0iqczgyZ4K7Db-176">
          <mxGeometry width="30" height="30" as="geometry">
            <mxRectangle width="30" height="30" as="alternateBounds" />
          </mxGeometry>
        </mxCell>
        <mxCell id="-NDaC0I0iqczgyZ4K7Db-178" value="`id` bigint NOT NULL AUTO_INCREMENT" style="shape=partialRectangle;overflow=hidden;connectable=0;fillColor=none;align=left;strokeColor=inherit;top=0;left=0;bottom=0;right=0;spacingLeft=6;fontStyle=5;" vertex="1" parent="-NDaC0I0iqczgyZ4K7Db-176">
          <mxGeometry x="30" width="1100" height="30" as="geometry">
            <mxRectangle width="1100" height="30" as="alternateBounds" />
          </mxGeometry>
        </mxCell>
        <mxCell id="-NDaC0I0iqczgyZ4K7Db-179" value="" style="shape=tableRow;horizontal=0;startSize=0;swimlaneHead=0;swimlaneBody=0;fillColor=none;collapsible=0;dropTarget=0;points=[[0,0.5],[1,0.5]];portConstraint=eastwest;strokeColor=inherit;top=0;left=0;right=0;bottom=0;" vertex="1" parent="-NDaC0I0iqczgyZ4K7Db-175">
          <mxGeometry y="60" width="1130" height="30" as="geometry" />
        </mxCell>
        <mxCell id="-NDaC0I0iqczgyZ4K7Db-180" value="" style="shape=partialRectangle;overflow=hidden;connectable=0;fillColor=none;strokeColor=inherit;top=0;left=0;bottom=0;right=0;" vertex="1" parent="-NDaC0I0iqczgyZ4K7Db-179">
          <mxGeometry width="30" height="30" as="geometry">
            <mxRectangle width="30" height="30" as="alternateBounds" />
          </mxGeometry>
        </mxCell>
        <mxCell id="-NDaC0I0iqczgyZ4K7Db-181" value="`ps_id` bigint DEFAULT NULL COMMENT &#39;电站ID&#39;" style="shape=partialRectangle;overflow=hidden;connectable=0;fillColor=none;align=left;strokeColor=inherit;top=0;left=0;bottom=0;right=0;spacingLeft=6;" vertex="1" parent="-NDaC0I0iqczgyZ4K7Db-179">
          <mxGeometry x="30" width="1100" height="30" as="geometry">
            <mxRectangle width="1100" height="30" as="alternateBounds" />
          </mxGeometry>
        </mxCell>
        <mxCell id="-NDaC0I0iqczgyZ4K7Db-182" value="" style="shape=tableRow;horizontal=0;startSize=0;swimlaneHead=0;swimlaneBody=0;fillColor=none;collapsible=0;dropTarget=0;points=[[0,0.5],[1,0.5]];portConstraint=eastwest;strokeColor=inherit;top=0;left=0;right=0;bottom=0;" vertex="1" parent="-NDaC0I0iqczgyZ4K7Db-175">
          <mxGeometry y="90" width="1130" height="30" as="geometry" />
        </mxCell>
        <mxCell id="-NDaC0I0iqczgyZ4K7Db-183" value="" style="shape=partialRectangle;overflow=hidden;connectable=0;fillColor=none;strokeColor=inherit;top=0;left=0;bottom=0;right=0;" vertex="1" parent="-NDaC0I0iqczgyZ4K7Db-182">
          <mxGeometry width="30" height="30" as="geometry">
            <mxRectangle width="30" height="30" as="alternateBounds" />
          </mxGeometry>
        </mxCell>
        <mxCell id="-NDaC0I0iqczgyZ4K7Db-184" value="`power_station_type` tinyint DEFAULT NULL COMMENT &#39;电站类型&#39;" style="shape=partialRectangle;overflow=hidden;connectable=0;fillColor=none;align=left;strokeColor=inherit;top=0;left=0;bottom=0;right=0;spacingLeft=6;" vertex="1" parent="-NDaC0I0iqczgyZ4K7Db-182">
          <mxGeometry x="30" width="1100" height="30" as="geometry">
            <mxRectangle width="1100" height="30" as="alternateBounds" />
          </mxGeometry>
        </mxCell>
        <mxCell id="-NDaC0I0iqczgyZ4K7Db-185" value="" style="shape=tableRow;horizontal=0;startSize=0;swimlaneHead=0;swimlaneBody=0;fillColor=none;collapsible=0;dropTarget=0;points=[[0,0.5],[1,0.5]];portConstraint=eastwest;strokeColor=inherit;top=0;left=0;right=0;bottom=0;" vertex="1" parent="-NDaC0I0iqczgyZ4K7Db-175">
          <mxGeometry y="120" width="1130" height="30" as="geometry" />
        </mxCell>
        <mxCell id="-NDaC0I0iqczgyZ4K7Db-186" value="" style="shape=partialRectangle;overflow=hidden;connectable=0;fillColor=none;strokeColor=inherit;top=0;left=0;bottom=0;right=0;" vertex="1" parent="-NDaC0I0iqczgyZ4K7Db-185">
          <mxGeometry width="30" height="30" as="geometry">
            <mxRectangle width="30" height="30" as="alternateBounds" />
          </mxGeometry>
        </mxCell>
        <mxCell id="-NDaC0I0iqczgyZ4K7Db-187" value="`is_auto` tinyint(1) DEFAULT NULL COMMENT &#39;是否自动生成（0手动、1 自动）&#39;" style="shape=partialRectangle;overflow=hidden;connectable=0;fillColor=none;align=left;strokeColor=inherit;top=0;left=0;bottom=0;right=0;spacingLeft=6;" vertex="1" parent="-NDaC0I0iqczgyZ4K7Db-185">
          <mxGeometry x="30" width="1100" height="30" as="geometry">
            <mxRectangle width="1100" height="30" as="alternateBounds" />
          </mxGeometry>
        </mxCell>
        <mxCell id="-NDaC0I0iqczgyZ4K7Db-188" value="" style="shape=tableRow;horizontal=0;startSize=0;swimlaneHead=0;swimlaneBody=0;fillColor=none;collapsible=0;dropTarget=0;points=[[0,0.5],[1,0.5]];portConstraint=eastwest;strokeColor=inherit;top=0;left=0;right=0;bottom=0;" vertex="1" parent="-NDaC0I0iqczgyZ4K7Db-175">
          <mxGeometry y="150" width="1130" height="30" as="geometry" />
        </mxCell>
        <mxCell id="-NDaC0I0iqczgyZ4K7Db-189" value="" style="shape=partialRectangle;overflow=hidden;connectable=0;fillColor=none;strokeColor=inherit;top=0;left=0;bottom=0;right=0;" vertex="1" parent="-NDaC0I0iqczgyZ4K7Db-188">
          <mxGeometry width="30" height="30" as="geometry">
            <mxRectangle width="30" height="30" as="alternateBounds" />
          </mxGeometry>
        </mxCell>
        <mxCell id="-NDaC0I0iqczgyZ4K7Db-190" value="`last_month_generation_hours` int DEFAULT NULL COMMENT &#39;上个月发电小时数90%位&#39;" style="shape=partialRectangle;overflow=hidden;connectable=0;fillColor=none;align=left;strokeColor=inherit;top=0;left=0;bottom=0;right=0;spacingLeft=6;" vertex="1" parent="-NDaC0I0iqczgyZ4K7Db-188">
          <mxGeometry x="30" width="1100" height="30" as="geometry">
            <mxRectangle width="1100" height="30" as="alternateBounds" />
          </mxGeometry>
        </mxCell>
        <mxCell id="-NDaC0I0iqczgyZ4K7Db-191" value="" style="shape=tableRow;horizontal=0;startSize=0;swimlaneHead=0;swimlaneBody=0;fillColor=none;collapsible=0;dropTarget=0;points=[[0,0.5],[1,0.5]];portConstraint=eastwest;strokeColor=inherit;top=0;left=0;right=0;bottom=0;" vertex="1" parent="-NDaC0I0iqczgyZ4K7Db-175">
          <mxGeometry y="180" width="1130" height="30" as="geometry" />
        </mxCell>
        <mxCell id="-NDaC0I0iqczgyZ4K7Db-192" value="" style="shape=partialRectangle;overflow=hidden;connectable=0;fillColor=none;strokeColor=inherit;top=0;left=0;bottom=0;right=0;" vertex="1" parent="-NDaC0I0iqczgyZ4K7Db-191">
          <mxGeometry width="30" height="30" as="geometry">
            <mxRectangle width="30" height="30" as="alternateBounds" />
          </mxGeometry>
        </mxCell>
        <mxCell id="-NDaC0I0iqczgyZ4K7Db-193" value="`gear_position` varchar(64) CHARACTER SET utf8mb4 COLLATE utf8mb4_general_ci DEFAULT NULL COMMENT &#39;档位&#39;" style="shape=partialRectangle;overflow=hidden;connectable=0;fillColor=none;align=left;strokeColor=inherit;top=0;left=0;bottom=0;right=0;spacingLeft=6;" vertex="1" parent="-NDaC0I0iqczgyZ4K7Db-191">
          <mxGeometry x="30" width="1100" height="30" as="geometry">
            <mxRectangle width="1100" height="30" as="alternateBounds" />
          </mxGeometry>
        </mxCell>
        <mxCell id="-NDaC0I0iqczgyZ4K7Db-194" value="" style="shape=tableRow;horizontal=0;startSize=0;swimlaneHead=0;swimlaneBody=0;fillColor=none;collapsible=0;dropTarget=0;points=[[0,0.5],[1,0.5]];portConstraint=eastwest;strokeColor=inherit;top=0;left=0;right=0;bottom=0;" vertex="1" parent="-NDaC0I0iqczgyZ4K7Db-175">
          <mxGeometry y="210" width="1130" height="30" as="geometry" />
        </mxCell>
        <mxCell id="-NDaC0I0iqczgyZ4K7Db-195" value="" style="shape=partialRectangle;overflow=hidden;connectable=0;fillColor=none;strokeColor=inherit;top=0;left=0;bottom=0;right=0;" vertex="1" parent="-NDaC0I0iqczgyZ4K7Db-194">
          <mxGeometry width="30" height="30" as="geometry">
            <mxRectangle width="30" height="30" as="alternateBounds" />
          </mxGeometry>
        </mxCell>
        <mxCell id="-NDaC0I0iqczgyZ4K7Db-196" value="`current_generation_hours` int DEFAULT NULL COMMENT &#39;当前标杆电站发电小时数 x&#39;" style="shape=partialRectangle;overflow=hidden;connectable=0;fillColor=none;align=left;strokeColor=inherit;top=0;left=0;bottom=0;right=0;spacingLeft=6;" vertex="1" parent="-NDaC0I0iqczgyZ4K7Db-194">
          <mxGeometry x="30" width="1100" height="30" as="geometry">
            <mxRectangle width="1100" height="30" as="alternateBounds" />
          </mxGeometry>
        </mxCell>
        <mxCell id="-NDaC0I0iqczgyZ4K7Db-197" value="" style="shape=tableRow;horizontal=0;startSize=0;swimlaneHead=0;swimlaneBody=0;fillColor=none;collapsible=0;dropTarget=0;points=[[0,0.5],[1,0.5]];portConstraint=eastwest;strokeColor=inherit;top=0;left=0;right=0;bottom=0;" vertex="1" parent="-NDaC0I0iqczgyZ4K7Db-175">
          <mxGeometry y="240" width="1130" height="30" as="geometry" />
        </mxCell>
        <mxCell id="-NDaC0I0iqczgyZ4K7Db-198" value="" style="shape=partialRectangle;overflow=hidden;connectable=0;fillColor=none;strokeColor=inherit;top=0;left=0;bottom=0;right=0;" vertex="1" parent="-NDaC0I0iqczgyZ4K7Db-197">
          <mxGeometry width="30" height="30" as="geometry">
            <mxRectangle width="30" height="30" as="alternateBounds" />
          </mxGeometry>
        </mxCell>
        <mxCell id="-NDaC0I0iqczgyZ4K7Db-199" value="`yesterday_generation_hours` varchar(16) CHARACTER SET utf8mb4 COLLATE utf8mb4_general_ci DEFAULT NULL COMMENT &#39;前一天该乡镇所有正常发电的电站的发电小时数平均值 y&#39;" style="shape=partialRectangle;overflow=hidden;connectable=0;fillColor=none;align=left;strokeColor=inherit;top=0;left=0;bottom=0;right=0;spacingLeft=6;" vertex="1" parent="-NDaC0I0iqczgyZ4K7Db-197">
          <mxGeometry x="30" width="1100" height="30" as="geometry">
            <mxRectangle width="1100" height="30" as="alternateBounds" />
          </mxGeometry>
        </mxCell>
        <mxCell id="-NDaC0I0iqczgyZ4K7Db-200" value="" style="shape=tableRow;horizontal=0;startSize=0;swimlaneHead=0;swimlaneBody=0;fillColor=none;collapsible=0;dropTarget=0;points=[[0,0.5],[1,0.5]];portConstraint=eastwest;strokeColor=inherit;top=0;left=0;right=0;bottom=0;" vertex="1" parent="-NDaC0I0iqczgyZ4K7Db-175">
          <mxGeometry y="270" width="1130" height="30" as="geometry" />
        </mxCell>
        <mxCell id="-NDaC0I0iqczgyZ4K7Db-201" value="" style="shape=partialRectangle;overflow=hidden;connectable=0;fillColor=none;strokeColor=inherit;top=0;left=0;bottom=0;right=0;" vertex="1" parent="-NDaC0I0iqczgyZ4K7Db-200">
          <mxGeometry width="30" height="30" as="geometry">
            <mxRectangle width="30" height="30" as="alternateBounds" />
          </mxGeometry>
        </mxCell>
        <mxCell id="-NDaC0I0iqczgyZ4K7Db-202" value="`deviation` int DEFAULT NULL COMMENT &#39;偏差，默认25%，此处存储int类型，取值/100&#39;" style="shape=partialRectangle;overflow=hidden;connectable=0;fillColor=none;align=left;strokeColor=inherit;top=0;left=0;bottom=0;right=0;spacingLeft=6;" vertex="1" parent="-NDaC0I0iqczgyZ4K7Db-200">
          <mxGeometry x="30" width="1100" height="30" as="geometry">
            <mxRectangle width="1100" height="30" as="alternateBounds" />
          </mxGeometry>
        </mxCell>
        <mxCell id="-NDaC0I0iqczgyZ4K7Db-203" value="" style="shape=tableRow;horizontal=0;startSize=0;swimlaneHead=0;swimlaneBody=0;fillColor=none;collapsible=0;dropTarget=0;points=[[0,0.5],[1,0.5]];portConstraint=eastwest;strokeColor=inherit;top=0;left=0;right=0;bottom=0;" vertex="1" parent="-NDaC0I0iqczgyZ4K7Db-175">
          <mxGeometry y="300" width="1130" height="30" as="geometry" />
        </mxCell>
        <mxCell id="-NDaC0I0iqczgyZ4K7Db-204" value="" style="shape=partialRectangle;overflow=hidden;connectable=0;fillColor=none;strokeColor=inherit;top=0;left=0;bottom=0;right=0;" vertex="1" parent="-NDaC0I0iqczgyZ4K7Db-203">
          <mxGeometry width="30" height="30" as="geometry">
            <mxRectangle width="30" height="30" as="alternateBounds" />
          </mxGeometry>
        </mxCell>
        <mxCell id="-NDaC0I0iqczgyZ4K7Db-205" value="`formula` varchar(64) CHARACTER SET utf8mb4 COLLATE utf8mb4_general_ci DEFAULT NULL COMMENT &#39;计算公式，默认 x&lt;y*（1-z）&#39;" style="shape=partialRectangle;overflow=hidden;connectable=0;fillColor=none;align=left;strokeColor=inherit;top=0;left=0;bottom=0;right=0;spacingLeft=6;" vertex="1" parent="-NDaC0I0iqczgyZ4K7Db-203">
          <mxGeometry x="30" width="1100" height="30" as="geometry">
            <mxRectangle width="1100" height="30" as="alternateBounds" />
          </mxGeometry>
        </mxCell>
        <mxCell id="-NDaC0I0iqczgyZ4K7Db-206" value="" style="shape=tableRow;horizontal=0;startSize=0;swimlaneHead=0;swimlaneBody=0;fillColor=none;collapsible=0;dropTarget=0;points=[[0,0.5],[1,0.5]];portConstraint=eastwest;strokeColor=inherit;top=0;left=0;right=0;bottom=0;" vertex="1" parent="-NDaC0I0iqczgyZ4K7Db-175">
          <mxGeometry y="330" width="1130" height="30" as="geometry" />
        </mxCell>
        <mxCell id="-NDaC0I0iqczgyZ4K7Db-207" value="" style="shape=partialRectangle;overflow=hidden;connectable=0;fillColor=none;strokeColor=inherit;top=0;left=0;bottom=0;right=0;" vertex="1" parent="-NDaC0I0iqczgyZ4K7Db-206">
          <mxGeometry width="30" height="30" as="geometry">
            <mxRectangle width="30" height="30" as="alternateBounds" />
          </mxGeometry>
        </mxCell>
        <mxCell id="-NDaC0I0iqczgyZ4K7Db-208" value="`new_generation_hours` int DEFAULT NULL COMMENT &#39;新标杆发电站小时数（符合替换逻辑，系统自动选取新的标杆电站W，W为同地区上月发电小时数仅次于X的电站）&#39;" style="shape=partialRectangle;overflow=hidden;connectable=0;fillColor=none;align=left;strokeColor=inherit;top=0;left=0;bottom=0;right=0;spacingLeft=6;" vertex="1" parent="-NDaC0I0iqczgyZ4K7Db-206">
          <mxGeometry x="30" width="1100" height="30" as="geometry">
            <mxRectangle width="1100" height="30" as="alternateBounds" />
          </mxGeometry>
        </mxCell>
        <mxCell id="-NDaC0I0iqczgyZ4K7Db-209" value="" style="shape=tableRow;horizontal=0;startSize=0;swimlaneHead=0;swimlaneBody=0;fillColor=none;collapsible=0;dropTarget=0;points=[[0,0.5],[1,0.5]];portConstraint=eastwest;strokeColor=inherit;top=0;left=0;right=0;bottom=0;" vertex="1" parent="-NDaC0I0iqczgyZ4K7Db-175">
          <mxGeometry y="360" width="1130" height="30" as="geometry" />
        </mxCell>
        <mxCell id="-NDaC0I0iqczgyZ4K7Db-210" value="" style="shape=partialRectangle;overflow=hidden;connectable=0;fillColor=none;strokeColor=inherit;top=0;left=0;bottom=0;right=0;" vertex="1" parent="-NDaC0I0iqczgyZ4K7Db-209">
          <mxGeometry width="30" height="30" as="geometry">
            <mxRectangle width="30" height="30" as="alternateBounds" />
          </mxGeometry>
        </mxCell>
        <mxCell id="-NDaC0I0iqczgyZ4K7Db-211" value="`difference_value` int DEFAULT NULL COMMENT &#39;低效与标杆对比的差值&#39;" style="shape=partialRectangle;overflow=hidden;connectable=0;fillColor=none;align=left;strokeColor=inherit;top=0;left=0;bottom=0;right=0;spacingLeft=6;" vertex="1" parent="-NDaC0I0iqczgyZ4K7Db-209">
          <mxGeometry x="30" width="1100" height="30" as="geometry">
            <mxRectangle width="1100" height="30" as="alternateBounds" />
          </mxGeometry>
        </mxCell>
        <mxCell id="-NDaC0I0iqczgyZ4K7Db-212" value="" style="shape=tableRow;horizontal=0;startSize=0;swimlaneHead=0;swimlaneBody=0;fillColor=none;collapsible=0;dropTarget=0;points=[[0,0.5],[1,0.5]];portConstraint=eastwest;strokeColor=inherit;top=0;left=0;right=0;bottom=0;" vertex="1" parent="-NDaC0I0iqczgyZ4K7Db-175">
          <mxGeometry y="390" width="1130" height="30" as="geometry" />
        </mxCell>
        <mxCell id="-NDaC0I0iqczgyZ4K7Db-213" value="" style="shape=partialRectangle;overflow=hidden;connectable=0;fillColor=none;strokeColor=inherit;top=0;left=0;bottom=0;right=0;" vertex="1" parent="-NDaC0I0iqczgyZ4K7Db-212">
          <mxGeometry width="30" height="30" as="geometry">
            <mxRectangle width="30" height="30" as="alternateBounds" />
          </mxGeometry>
        </mxCell>
        <mxCell id="-NDaC0I0iqczgyZ4K7Db-214" value="`difference_ratio` int DEFAULT NULL COMMENT &#39;低效与标杆对比的差额比例，此处存储int类型，取值 /100&#39;" style="shape=partialRectangle;overflow=hidden;connectable=0;fillColor=none;align=left;strokeColor=inherit;top=0;left=0;bottom=0;right=0;spacingLeft=6;" vertex="1" parent="-NDaC0I0iqczgyZ4K7Db-212">
          <mxGeometry x="30" width="1100" height="30" as="geometry">
            <mxRectangle width="1100" height="30" as="alternateBounds" />
          </mxGeometry>
        </mxCell>
        <mxCell id="-NDaC0I0iqczgyZ4K7Db-215" value="" style="shape=tableRow;horizontal=0;startSize=0;swimlaneHead=0;swimlaneBody=0;fillColor=none;collapsible=0;dropTarget=0;points=[[0,0.5],[1,0.5]];portConstraint=eastwest;strokeColor=inherit;top=0;left=0;right=0;bottom=0;" vertex="1" parent="-NDaC0I0iqczgyZ4K7Db-175">
          <mxGeometry y="420" width="1130" height="30" as="geometry" />
        </mxCell>
        <mxCell id="-NDaC0I0iqczgyZ4K7Db-216" value="" style="shape=partialRectangle;overflow=hidden;connectable=0;fillColor=none;strokeColor=inherit;top=0;left=0;bottom=0;right=0;" vertex="1" parent="-NDaC0I0iqczgyZ4K7Db-215">
          <mxGeometry width="30" height="30" as="geometry">
            <mxRectangle width="30" height="30" as="alternateBounds" />
          </mxGeometry>
        </mxCell>
        <mxCell id="-NDaC0I0iqczgyZ4K7Db-217" value="`power_station_status` tinyint DEFAULT NULL COMMENT &#39;电站状态&#39;" style="shape=partialRectangle;overflow=hidden;connectable=0;fillColor=none;align=left;strokeColor=inherit;top=0;left=0;bottom=0;right=0;spacingLeft=6;" vertex="1" parent="-NDaC0I0iqczgyZ4K7Db-215">
          <mxGeometry x="30" width="1100" height="30" as="geometry">
            <mxRectangle width="1100" height="30" as="alternateBounds" />
          </mxGeometry>
        </mxCell>
        <mxCell id="-NDaC0I0iqczgyZ4K7Db-218" value="" style="shape=tableRow;horizontal=0;startSize=0;swimlaneHead=0;swimlaneBody=0;fillColor=none;collapsible=0;dropTarget=0;points=[[0,0.5],[1,0.5]];portConstraint=eastwest;strokeColor=inherit;top=0;left=0;right=0;bottom=0;" vertex="1" parent="-NDaC0I0iqczgyZ4K7Db-175">
          <mxGeometry y="450" width="1130" height="30" as="geometry" />
        </mxCell>
        <mxCell id="-NDaC0I0iqczgyZ4K7Db-219" value="" style="shape=partialRectangle;overflow=hidden;connectable=0;fillColor=none;strokeColor=inherit;top=0;left=0;bottom=0;right=0;" vertex="1" parent="-NDaC0I0iqczgyZ4K7Db-218">
          <mxGeometry width="30" height="30" as="geometry">
            <mxRectangle width="30" height="30" as="alternateBounds" />
          </mxGeometry>
        </mxCell>
        <mxCell id="-NDaC0I0iqczgyZ4K7Db-220" value="`audit_status` tinyint DEFAULT NULL COMMENT &#39;审核状态&#39;" style="shape=partialRectangle;overflow=hidden;connectable=0;fillColor=none;align=left;strokeColor=inherit;top=0;left=0;bottom=0;right=0;spacingLeft=6;" vertex="1" parent="-NDaC0I0iqczgyZ4K7Db-218">
          <mxGeometry x="30" width="1100" height="30" as="geometry">
            <mxRectangle width="1100" height="30" as="alternateBounds" />
          </mxGeometry>
        </mxCell>
        <mxCell id="-NDaC0I0iqczgyZ4K7Db-221" value="" style="shape=tableRow;horizontal=0;startSize=0;swimlaneHead=0;swimlaneBody=0;fillColor=none;collapsible=0;dropTarget=0;points=[[0,0.5],[1,0.5]];portConstraint=eastwest;strokeColor=inherit;top=0;left=0;right=0;bottom=0;" vertex="1" parent="-NDaC0I0iqczgyZ4K7Db-175">
          <mxGeometry y="480" width="1130" height="30" as="geometry" />
        </mxCell>
        <mxCell id="-NDaC0I0iqczgyZ4K7Db-222" value="" style="shape=partialRectangle;overflow=hidden;connectable=0;fillColor=none;strokeColor=inherit;top=0;left=0;bottom=0;right=0;" vertex="1" parent="-NDaC0I0iqczgyZ4K7Db-221">
          <mxGeometry width="30" height="30" as="geometry">
            <mxRectangle width="30" height="30" as="alternateBounds" />
          </mxGeometry>
        </mxCell>
        <mxCell id="-NDaC0I0iqczgyZ4K7Db-223" value="`create_time` datetime DEFAULT NULL COMMENT &#39;创建时间&#39;" style="shape=partialRectangle;overflow=hidden;connectable=0;fillColor=none;align=left;strokeColor=inherit;top=0;left=0;bottom=0;right=0;spacingLeft=6;" vertex="1" parent="-NDaC0I0iqczgyZ4K7Db-221">
          <mxGeometry x="30" width="1100" height="30" as="geometry">
            <mxRectangle width="1100" height="30" as="alternateBounds" />
          </mxGeometry>
        </mxCell>
        <mxCell id="-NDaC0I0iqczgyZ4K7Db-224" value="" style="shape=tableRow;horizontal=0;startSize=0;swimlaneHead=0;swimlaneBody=0;fillColor=none;collapsible=0;dropTarget=0;points=[[0,0.5],[1,0.5]];portConstraint=eastwest;strokeColor=inherit;top=0;left=0;right=0;bottom=0;" vertex="1" parent="-NDaC0I0iqczgyZ4K7Db-175">
          <mxGeometry y="510" width="1130" height="30" as="geometry" />
        </mxCell>
        <mxCell id="-NDaC0I0iqczgyZ4K7Db-225" value="" style="shape=partialRectangle;overflow=hidden;connectable=0;fillColor=none;strokeColor=inherit;top=0;left=0;bottom=0;right=0;" vertex="1" parent="-NDaC0I0iqczgyZ4K7Db-224">
          <mxGeometry width="30" height="30" as="geometry">
            <mxRectangle width="30" height="30" as="alternateBounds" />
          </mxGeometry>
        </mxCell>
        <mxCell id="-NDaC0I0iqczgyZ4K7Db-226" value="`create_by` bigint DEFAULT NULL COMMENT &#39;创建人&#39;" style="shape=partialRectangle;overflow=hidden;connectable=0;fillColor=none;align=left;strokeColor=inherit;top=0;left=0;bottom=0;right=0;spacingLeft=6;" vertex="1" parent="-NDaC0I0iqczgyZ4K7Db-224">
          <mxGeometry x="30" width="1100" height="30" as="geometry">
            <mxRectangle width="1100" height="30" as="alternateBounds" />
          </mxGeometry>
        </mxCell>
        <mxCell id="-NDaC0I0iqczgyZ4K7Db-230" style="edgeStyle=orthogonalEdgeStyle;rounded=0;orthogonalLoop=1;jettySize=auto;html=1;" edge="1" parent="1" source="-NDaC0I0iqczgyZ4K7Db-2" target="-NDaC0I0iqczgyZ4K7Db-179">
          <mxGeometry relative="1" as="geometry" />
        </mxCell>
        <mxCell id="-NDaC0I0iqczgyZ4K7Db-231" value="1:n" style="edgeLabel;html=1;align=center;verticalAlign=middle;resizable=0;points=[];" vertex="1" connectable="0" parent="-NDaC0I0iqczgyZ4K7Db-230">
          <mxGeometry x="0.0661" y="2" relative="1" as="geometry">
            <mxPoint as="offset" />
          </mxGeometry>
        </mxCell>
      </root>
    </mxGraphModel>
  </diagram>
</mxfile>
